<svg height="24" width="24" xmlns="http://www.w3.org/2000/svg">
  <path d="m12 5a7 7 0 0 0 -7 7 7 7 0 0 0 7 7 7 7 0 0 0 7-7 7 7 0 0 0 -7-7zm-3 3.921875h.75c.008-.00009.0156-.000345.0234 0 .19121.0084.3824.09643.51562.234375l1.71098 1.710938 1.73438-1.710938c.19921-.172875.335-.229125.51562-.234375h.75v.75c0 .214853-.0258.412987-.1875.5625l-1.71094 1.710937 1.6875 1.687498c.14114.14113.21093.34009.21094.53907v.75h-.75c-.19898-.00001-.39794-.0698-.53906-.21094l-1.71094-1.71094-1.71094 1.71094c-.14112.14114-.34009.21094-.53906.21094h-.75v-.75c0-.19897.0698-.39794.21094-.53907l1.71094-1.687498-1.71094-1.710937c-.15806-.145972-.22737-.351937-.21094-.5625z" fill="#f68086"/>
</svg>
