<svg height="16" width="16" xmlns="http://www.w3.org/2000/svg">
  <g fill="#f55" fill-rule="evenodd" transform="matrix(.01265625 0 0 -.01265625 .92804 14.51988)">
    <path d="m558.77702-37.935253c305.45606 0 553.08158 247.625863 553.08158 553.085803 0 305.46124-247.62552 553.08675-553.08158 553.08675-305.46512 0-553.0913044-247.62551-553.0913044-553.08675 0-305.45994 247.6261844-553.085803 553.0913044-553.085803"/>
    <path d="m558.77747 1.5676633c283.63699 0 513.57493 229.9429467 513.57493 513.5851867 0 283.64355-229.93794 513.58155-513.57493 513.58155-283.64749 0-513.585581-229.938-513.585581-513.58155 0-283.64224 229.938091-513.5851867 513.585581-513.5851867"/>
  </g>
</svg>
