<svg height="15" width="15" xmlns="http://www.w3.org/2000/svg">
  <g enable-background="new" fill-rule="evenodd" transform="translate(-22.44761 -232.47149)">
    <path d="m29.947677 246.47153c3.589781 0 6.499933-2.91022 6.499933-6.50006 0-3.58987-2.910152-6.50002-6.499933-6.50002-3.589913 0-6.500067 2.91015-6.500067 6.50002 0 3.58984 2.910154 6.50006 6.500067 6.50006" fill="#f55"/>
    <path d="m27.10038 236.50039c-.149605 0-.299437.0583-.412958.17186l-.01026.0103c-.227058.22704-.227058.59887 0 .82591l2.513654 2.51365-2.513653 2.51622c-.226992.22698-.226992.59631 0 .82335l.01026.0128c.226974.22704.598873.22704.825914 0l2.513653-2.51365 2.513653 2.51365c.226992.22704.598873.22704.825915 0l.01026-.0128c.226975-.22697.226975-.59637 0-.82335l-2.513653-2.51622 2.513653-2.51365c.226975-.22704.227041-.59894 0-.82591l-.01026-.0103c-.227108-.22698-.598924-.22698-.825915 0l-2.513653 2.51365-2.513653-2.51365c-.113521-.11352-.263353-.17186-.412957-.17186z" fill="#231d2b"/>
  </g>
</svg>
