<svg height="16" width="16" xmlns="http://www.w3.org/2000/svg">
  <g fill-rule="evenodd" transform="matrix(.01265625 0 0 -.01265625 .92804 14.51988)">
    <path d="m558.77708-37.935271c305.45607 0 553.08142 247.625871 553.08142 553.085831 0 305.46125-247.62535 553.08674-553.08142 553.08674-305.46513 0-553.0913269-247.62549-553.0913269-553.08674 0-305.45996 247.6261969-553.085831 553.0913269-553.085831" fill="#d52735"/>
    <g transform="matrix(1.0680345 0 0 1.0680345 .417863 -41.900484)">
      <path d="m522.79173 40.6992c265.56911 0 480.85987 215.29542 480.85987 480.86946 0 265.57526-215.29076 480.86604-480.85987 480.86604-265.57896 0-480.86983-215.29078-480.86983-480.86604 0-265.57404 215.29087-480.86946 480.86983-480.86946" fill="#f55"/>
      <path d="m306.28404 782.14979c-11.06764 0-22.15209-4.31529-30.55026-12.71345l-.75901-.75902c-16.79758-16.79634-16.79758-44.30417 0-61.10052l185.9581-185.9581-185.9581-186.14784c-16.79266-16.79145-16.79266-44.11445 0-60.91075l.75901-.94881c16.79142-16.7963 44.30418-16.7963 61.10051 0l185.95811 185.95811 185.9581-185.95811c16.79265-16.7963 44.30417-16.7963 61.10052 0l.75901.94881c16.79142 16.79144 16.79142 44.1193 0 60.91075l-185.9581 186.14784 185.9581 185.9581c16.79142 16.79635 16.79635 44.3091 0 61.10052l-.75901.75902c-16.80126 16.79142-44.30787 16.79142-61.10052 0l-185.9581-185.95811-185.95811 185.95811c-8.39817 8.39816-19.48262 12.71345-30.55025 12.71345z" fill="#9f1d2b"/>
    </g>
  </g>
</svg>
