<svg height="16" width="16" xmlns="http://www.w3.org/2000/svg">
  <g fill-rule="evenodd" transform="matrix(.01265625 0 0 -.01265625 .92804 14.51988)">
    <path d="m558.7771-37.935173c305.45604 0 553.0815 247.625853 553.0815 553.085763 0 305.46122-247.62546 553.08661-553.0815 553.08661-305.46509 0-553.091393-247.62539-553.091393-553.08661 0-305.45991 247.626303-553.085763 553.091393-553.085763" fill="#13c11e"/>
    <path d="m317.36351 650.00117h267.199c35.579 0 64.692-29.113 64.692-64.695v-267.196zm232.324-436.211h-268.253c-35.583 0-64.692 29.109-64.692 64.691v268.254z" fill="#0b7407" transform="matrix(1.3132489 0 0 1.3132489 -9.862536 -52.033006)"/>
  </g>
</svg>
