<svg height="16" width="16" xmlns="http://www.w3.org/2000/svg">
  <g fill="#50fa7b" fill-rule="evenodd" transform="matrix(.01265624987 0 0 -.01265624987 .87737080438 14.51838441094)">
    <path d="m562.7806-38.053372c305.45604 0 553.0815 247.625852 553.0815 553.085772 0 305.46122-247.62546 553.0867-553.0815 553.0867-305.4651 0-553.0913989-247.62548-553.0913989-553.0867 0-305.45992 247.6262989-553.085772 553.0913989-553.085772"/>
    <path d="m562.77841 1.4521975c283.64075 0 513.57749 229.9417425 513.57749 513.5824825 0 283.64206-229.93674 513.57882-513.57749 513.57882-283.646 0-513.583014-229.93676-513.583014-513.57882 0-283.64074 229.937014-513.5824825 513.583014-513.5824825"/>
  </g>
</svg>
