<svg height="15" width="15" xmlns="http://www.w3.org/2000/svg">
  <g enable-background="new" fill-rule="evenodd" transform="translate(-112.5 -232.58814)">
    <path d="m120.00003 246.58814c3.58985 0 6.49997-2.91014 6.49997-6.50004 0-3.58983-2.91012-6.49996-6.49997-6.49996-3.58983 0-6.50003 2.91013-6.50003 6.49996 0 3.5899 2.9102 6.50004 6.50003 6.50004" fill="#f1fa8c"/>
    <path d="m115.65659 239.59246h8.2947c.32105 0 .58367.26256.58367.58367v.0154c0 .32112-.26262.58367-.58367.58367h-8.2947c-.32106 0-.58367-.26255-.58367-.58367v-.0154c0-.32111.26261-.58367.58367-.58367" fill="#232831"/>
  </g>
</svg>
