<svg xmlns="http://www.w3.org/2000/svg" width="24" height="24"  xmlns:v="https://vecta.io/nano"><defs><linearGradient y2="-23.604" x2="45.021" y1="-9.472" x1="45.021" id="A" gradientUnits="userSpaceOnUse"><stop offset="0" stop-color="#1d1d1d" stop-opacity="0"/><stop offset="1"/></linearGradient><linearGradient y2="-4.599" x2="45.02" y1="8.56" x1="45.02" id="B" gradientUnits="userSpaceOnUse"><stop offset="0" stop-color="#1d1d1d" stop-opacity="0"/><stop offset="1" stop-color="#737373" stop-opacity=".322"/></linearGradient></defs><g transform="matrix(.733292 0 0 .733292 -20.998122 5.400376)"><circle cx="45" cy="9" r="14.501" fill="#373737" stroke="#1d1d1d"/><g fill="none"><path d="M31.498 9a13.502 13.502 0 1 1 27.003 0" stroke="url(#B)"/><path d="M30.501-9c0-8.007 6.491-14.499 14.499-14.499A14.5 14.5 0 0 1 59.499-9" transform="scale(1 -1)" stroke="url(#A)" stroke-width="1.002"/></g></g><path d="M8.286 7.384l.465.001c.255.011.44.199.618.383l2.634 2.632 2.666-2.633c.266-.231.376-.377.617-.384h.435v1.035c0 .286-.105-.121-.321.079l-2.635 2.635 2.603 2.603c.188.188.351.384.351.649v.934h-.434c-.265 0-.459-.664-.648-.852l-2.634-2.634-2.635 2.634c-.193.185-.381.857-.649.852h-.434v-.935c0-.265.164-.459.352-.648l2.635-2.604-2.633-2.634c-.205-.193-.38.202-.353-.079z" fill="#070707"/><path d="M8.286 8.284l.465.001c.255.011.44.199.618.383l2.634 2.632 2.665-2.633c.266-.231.376-.377.617-.384h.435v.435c0 .286-.105.479-.321.679l-2.634 2.635 2.603 2.603c.188.188.351.384.351.649v.434h-.434c-.265 0-.459-.164-.648-.352l-2.634-2.634-2.635 2.634c-.193.185-.381.357-.649.352l-.434.001v-.435c0-.265.164-.459.352-.648l2.635-2.604-2.633-2.634c-.205-.193-.38-.399-.353-.679z" fill="#eeeeec"/></svg>