<svg height="24" width="24" xmlns="http://www.w3.org/2000/svg">
  <circle cx="12" cy="12" fill="#6e6e6e" r="11"/>
  <path d="m8.0044984 8.0000011h.9999874.030236c.2539842.01172.511748.128919.6874961.312491l2.2812851 2.2812509 2.312466-2.2812509c.265701-.230475.445342-.304705.687534-.312491h.999999v1.000002c0 .285166-.03402.55078-.249827.749998l-2.281247 2.2812519 2.24999 2.249998c.187465.187502.281197.453127.281197.718752v.999999h-1.000036c-.265701 0-.531251-.09377-.718753-.281234l-2.281247-2.281252-2.2812475 2.281252c-.1874646.187502-.4531276.281234-.7187528.281234h-.9999874v-.999999c0-.265625.093732-.53125.2811968-.718752l2.2812469-2.249998-2.2812469-2.2812519c-.2108976-.195326-.3046299-.468748-.2811968-.749998zm0 0" fill="#fff"/>
</svg>
