<svg xmlns="http://www.w3.org/2000/svg" width="24" height="24"  xmlns:v="https://vecta.io/nano"><defs><linearGradient y2="-23.604" x2="45.021" y1="-9.472" x1="45.021" id="A" gradientUnits="userSpaceOnUse"><stop offset="0" stop-color="#1d1d1d" stop-opacity="0"/><stop offset="1"/></linearGradient><linearGradient y2="-4.599" x2="45.02" y1="8.56" x1="45.02" id="B" gradientUnits="userSpaceOnUse"><stop offset="0" stop-color="#1d1d1d" stop-opacity="0"/><stop offset="1" stop-color="#737373" stop-opacity=".322"/></linearGradient></defs><g transform="matrix(.733292 0 0 .733292 -20.998122 5.400376)"><circle cx="45" cy="9" r="14.501" fill="#373737" stroke="#1d1d1d"/><g fill="none"><path d="M31.498 9a13.502 13.502 0 1 1 27.003 0" stroke="url(#B)"/><path d="M30.501-9c0-8.007 6.491-14.499 14.499-14.499A14.5 14.5 0 0 1 59.499-9" transform="scale(1 -1)" stroke="url(#A)" stroke-width="1.002"/></g></g><path d="M8 7v8h8V7zm1 1h6v6H9z" fill="#070707"/><path d="M8 8v8h8V8zm1 1h6v6H9z" fill="#eeeeec"/></svg>