<svg height="128" width="128" xmlns="http://www.w3.org/2000/svg">
  <rect fill="#f47325" height="104" rx="8" width="104" x="12" y="15"/>
  <path d="m20 119h88c4.432 0 8-3.568 8-8v-20h-104v20c0 4.432 3.568 8 8 8z" opacity=".8"/>
  <path d="m20 15h88c4.432 0 8 3.568 8 8v5h-104v-5c0-4.432 3.568-8 8-8z" opacity=".8"/>
  <g fill="#fff">
    <path d="m64.950893 97c-.4 0-.750084.134142-1.050084.40081-.288888.255554-.433455.61085-.433455 1.066405s.144567.816065.433455 1.082725c.3.25556.650084.38267 1.050084.38267.399999 0 .743059-.12711 1.031947-.38267.299999-.26666.451591-.62717.451591-1.082725s-.151592-.810851-.451591-1.066405c-.288888-.266668-.631948-.40081-1.031947-.40081zm5.983119 1.416435-2.484654.400805v7.36691c0 .56667.05053 1.08216.15053 1.54883.111111.46666.300995.86727.567662 1.20061.266667.32223.621962.57827 1.066406.76716.444444.17778 1.005259.2666 1.683036.2666.533333 0 .982664-.0453 1.34933-.1342s.701116-.19516 1.001116-.31738l-.350027-1.93332c-.233334.0889-.494595.16211-.783482.21763-.277779.0445-.551275.0671-.817942.0671-.555555.00001-.926485-.1568-1.115374-.4679-.177777-.31112-.266601-.72736-.266601-1.24958v-3.08316h2.983399v-2.06571h-2.983399zm8.449637 2.350445c-.533333 0-1.055854.0992-1.566964.29925-.5.2-.94412.49434-1.333008.88323-.388889.38889-.705891.87832-.950335 1.46722-.233333.57777-.350028 1.25528-.350028 2.03306 0 .64444.08882 1.24536.266602 1.80092.188888.55555.472809 1.03797.850586 1.44908.388888.4.871302.717 1.449079.95034.588888.23333 1.278634.35002 2.067522.35002.311112 0 .621088-.0175.932199-.0508.311111-.0334.600242-.0769.866908-.1324.277778-.0444.528616-.10018.750838-.16684.222222-.0667.399869-.13284.533203-.19951l-.333705-2.01673c-.277778.12221-.638285.22668-1.082729.31556-.433333.0778-.877453.11788-1.333008.11788-.711111 0-1.278951-.14977-1.701172-.44977-.422224-.29999-.660825-.70582-.716378-1.21694h5.633091c.01111-.13333.02335-.28311.03446-.44977.01111-.17778.01632-.33979.01632-.48424 0-1.47778-.360508-2.59419-1.082728-3.34975-.722223-.76666-1.706311-1.14983-2.950754-1.14983zm-21.750698.0327c-.733331 0-1.4335.0557-2.100167.16684-.666666.10001-1.210032.2115-1.632254.33371v8.46597h2.48284v-6.76661c.155555-.0222.333203-.0379.533203-.049.2-.0222.389884-.0345.567662-.0345.577777 0 .971368.16723 1.182477.50057.211112.33333.317383.89936.317383 1.69935v4.65012h2.482841v-4.94936c0-.6-.06095-1.14518-.183175-1.63408-.122221-.48888-.32774-.91034-.61663-1.2659-.288888-.35555-.684292-.62724-1.184291-.81612-.488889-.2-1.105445-.30106-1.849889-.30106zm-13.632951.2013v4.88227c0 .59999.06095 1.15038.183175 1.65038.122222.50001.327741.9337.61663 1.30036.288887.35556.67908.63245 1.167968.83245.5.20001 1.121767.30106 1.866211.30106.733333 0 1.433502-.0557 2.100168-.16684.666666-.10001 1.210032-.21149 1.632254-.33371v-8.46597h-2.482841v6.76661c-.155555.0222-.333203.0431-.533203.0653-.199999.0112-.38807.0181-.565848.0181-.577777 0-.97318-.17947-1.184291-.53502-.211111-.35556-.317383-.93201-.317383-1.73201v-4.58301zm19.717634 0v8.76522h2.48284v-8.76522zm15.698661 1.81544c.288887 0 .527489.0505.716378.15053.2.1.362013.22712.484235.38267.133335.15555.227371.3332.282924.5332.06667.20001.106773.40553.117885.61663h-3.284458c.03333-.2111.08386-.41662.15053-.61663.07778-.21111.182236-.39397.315569-.54952.133333-.15556.300558-.27746.500558-.36635.2-.1.438601-.15053.716379-.15053z"/>
    <rect height="3" rx="1" width="3" x="102" y="20"/>
    <rect height="3" rx="1" width="3" x="107" y="20"/>
    <rect height="3" rx="1" width="3" x="23" y="20"/>
    <rect height="3" rx="1" width="3" x="28" y="20"/>
  </g>
  <rect fill="#ff7f2a" height="3" rx="1" width="3" x="18" y="20"/>
  <path d="m55.685547 42.5c-6.616588 0-12.027344 5.369144-12.027344 12.027344 0 6.699818 5.410756 12.02539 12.027344 12.02539h14.814453c1.290033 0 2.289062-.999037 2.289062-2.289062 0-1.248408-.999029-2.330078-2.289062-2.330078h-14.814453c-4.078149 0-7.408203-3.328099-7.408203-7.40625 0-4.119759 3.330054-7.408203 7.408203-7.408203h14.814453c1.290033 0 2.289062-1.040054 2.289062-2.330079s-.999029-2.289062-2.289062-2.289062zm1.814453 9.947266c-1.290027 0-2.289062.999037-2.289062 2.289062 0 1.290034.999035 2.330078 2.289062 2.330078h14.814453c4.078151 0 7.408203 3.286491 7.408203 7.40625 0 4.078151-3.330052 7.408203-7.408203 7.408203h-14.814453c-1.290027 0-2.289062 1.081661-2.289062 2.330079 0 1.290024.999035 2.289062 2.289062 2.289062h14.814453c6.616592 0 12.027344-5.327527 12.027344-12.027344 0-6.6582-5.410752-12.02539-12.027344-12.02539z" fill="#fff"/>
</svg>
