<svg height="128" width="128" xmlns="http://www.w3.org/2000/svg" xmlns:xlink="http://www.w3.org/1999/xlink">
  <linearGradient id="a">
    <stop offset="0" stop-color="#4b4b4b"/>
    <stop offset="1" stop-color="#a4a4a4"/>
  </linearGradient>
  <linearGradient id="b" gradientTransform="matrix(-.19999997 0 0 .19999997 25.172588 -47.799999)" gradientUnits="userSpaceOnUse" x1="19.874987" x2="19.874987" xlink:href="#a" y1="38.245197" y2="-61.256123"/>
  <linearGradient id="c" gradientTransform="matrix(-.17777775 0 0 .17777775 24.486744 -47.377777)" gradientUnits="userSpaceOnUse" x1="19.874987" x2="19.874987" xlink:href="#a" y1="38.245197" y2="-61.256123"/>
  <rect fill="#f47325" height="104" rx="6.058252" width="104" x="12" y="15"/>
  <path d="m18.058253 15h91.883497c3.35627 0 6.05825 2.792348 6.05825 6.260869v5.739131h-104v-5.739131c0-3.468521 2.70198-6.260869 6.058253-6.260869z" opacity=".8"/>
  <path d="m18.058253 119h91.883497c3.35627 0 6.05825-2.79235 6.05825-6.26087v-21.73913h-104v21.73913c0 3.46852 2.70198 6.26087 6.058253 6.26087z" opacity=".8"/>
  <g transform="translate(0 65)">
    <path d="m20.412268-46h-2.824538c-.325601 0-.58773.262128-.58773.587732v2.824536c0 .325604.262129.587732.58773.587732h2.824538c.325599 0 .58773-.262128.58773-.587732v-2.824536c0-.325604-.262131-.587732-.58773-.587732z" fill="url(#b)" opacity=".15"/>
    <path d="m20.25535-45.777778h-2.510701c-.289424 0-.522427.233003-.522427.522428v2.5107c0 .289425.233003.522428.522427.522428h2.510701c.289421 0 .522426-.233003.522426-.522428v-2.5107c0-.289425-.233005-.522428-.522426-.522428z" fill="url(#c)" opacity=".3"/>
    <path d="m20.157689-45.446061h-2.315382c-.159755 0-.288371.128615-.288371.288372v2.315378c0 .159758.128616.288372.288371.288372h2.315382c.159759 0 .288373-.128614.288373-.288372v-2.315378c0-.159757-.128614-.288372-.288373-.288372z" fill="#f47325" stroke="#f47325" stroke-width=".218983"/>
  </g>
  <g transform="translate(5 65)">
    <path d="m20.412268-46h-2.824538c-.325601 0-.58773.262128-.58773.587732v2.824536c0 .325604.262129.587732.58773.587732h2.824538c.325599 0 .58773-.262128.58773-.587732v-2.824536c0-.325604-.262131-.587732-.58773-.587732z" fill="url(#b)" opacity=".15"/>
    <path d="m20.25535-45.777778h-2.510701c-.289424 0-.522427.233003-.522427.522428v2.5107c0 .289425.233003.522428.522427.522428h2.510701c.289421 0 .522426-.233003.522426-.522428v-2.5107c0-.289425-.233005-.522428-.522426-.522428z" fill="url(#c)" opacity=".3"/>
    <path d="m20.157689-45.446061h-2.315382c-.159755 0-.288371.128615-.288371.288372v2.315378c0 .159758.128616.288372.288371.288372h2.315382c.159759 0 .288373-.128614.288373-.288372v-2.315378c0-.159757-.128614-.288372-.288373-.288372z" fill="#f7f7f7" stroke="#fff" stroke-width=".218983"/>
  </g>
  <g transform="translate(10 65)">
    <path d="m20.412268-46h-2.824538c-.325601 0-.58773.262128-.58773.587732v2.824536c0 .325604.262129.587732.58773.587732h2.824538c.325599 0 .58773-.262128.58773-.587732v-2.824536c0-.325604-.262131-.587732-.58773-.587732z" fill="url(#b)" opacity=".15"/>
    <path d="m20.25535-45.777778h-2.510701c-.289424 0-.522427.233003-.522427.522428v2.5107c0 .289425.233003.522428.522427.522428h2.510701c.289421 0 .522426-.233003.522426-.522428v-2.5107c0-.289425-.233005-.522428-.522426-.522428z" fill="url(#c)" opacity=".3"/>
    <path d="m20.157689-45.446061h-2.315382c-.159755 0-.288371.128615-.288371.288372v2.315378c0 .159758.128616.288372.288371.288372h2.315382c.159759 0 .288373-.128614.288373-.288372v-2.315378c0-.159757-.128614-.288372-.288373-.288372z" fill="#f7f7f7" stroke="#fff" stroke-width=".218983"/>
  </g>
  <g transform="translate(85 65)">
    <path d="m20.412268-46h-2.824538c-.325601 0-.58773.262128-.58773.587732v2.824536c0 .325604.262129.587732.58773.587732h2.824538c.325599 0 .58773-.262128.58773-.587732v-2.824536c0-.325604-.262131-.587732-.58773-.587732z" fill="url(#b)" opacity=".15"/>
    <path d="m20.25535-45.777778h-2.510701c-.289424 0-.522427.233003-.522427.522428v2.5107c0 .289425.233003.522428.522427.522428h2.510701c.289421 0 .522426-.233003.522426-.522428v-2.5107c0-.289425-.233005-.522428-.522426-.522428z" fill="url(#c)" opacity=".3"/>
    <path d="m20.157689-45.446061h-2.315382c-.159755 0-.288371.128615-.288371.288372v2.315378c0 .159758.128616.288372.288371.288372h2.315382c.159759 0 .288373-.128614.288373-.288372v-2.315378c0-.159757-.128614-.288372-.288373-.288372z" fill="#e6e6e6" stroke="#ccc" stroke-width=".218983"/>
  </g>
  <g transform="translate(90 65)">
    <path d="m20.412268-46h-2.824538c-.325601 0-.58773.262128-.58773.587732v2.824536c0 .325604.262129.587732.58773.587732h2.824538c.325599 0 .58773-.262128.58773-.587732v-2.824536c0-.325604-.262131-.587732-.58773-.587732z" fill="url(#b)" opacity=".15"/>
    <path d="m20.25535-45.777778h-2.510701c-.289424 0-.522427.233003-.522427.522428v2.5107c0 .289425.233003.522428.522427.522428h2.510701c.289421 0 .522426-.233003.522426-.522428v-2.5107c0-.289425-.233005-.522428-.522426-.522428z" fill="url(#c)" opacity=".3"/>
    <path d="m20.157689-45.446061h-2.315382c-.159755 0-.288371.128615-.288371.288372v2.315378c0 .159758.128616.288372.288371.288372h2.315382c.159759 0 .288373-.128614.288373-.288372v-2.315378c0-.159757-.128614-.288372-.288373-.288372z" fill="#e6e6e6" stroke="#ccc" stroke-width=".218983"/>
  </g>
  <text font-family="sans-serif" font-size="17.9487" letter-spacing="0" stroke-width=".841347" word-spacing="0" x="41.609043" y="110.74871"><tspan fill="#fff" font-family="Ubuntu" font-size="17.9487" font-weight="bold" stroke-width=".841347" x="41.609043" y="110.74871">unite</tspan></text>
  <g fill="#fff" opacity=".8" stroke-width=".191365" transform="matrix(1.04932179 0 0 1.04932179 -39.707507 -127.134313)">
    <path d="m-169.47799 108.15509v-16.609606c0-1.446343-1.11975-2.566091-2.56609-2.566091-1.44635 0-2.61275 1.119748-2.61275 2.566091v16.609606c0 4.57231-3.68584 8.3048-8.3048 8.3048-4.57231 0-8.30481-3.73249-8.30481-8.3048v-16.609606c0-1.446343-1.21306-2.566091-2.61275-2.566091-1.44634 0-2.56609 1.119748-2.56609 2.566091v16.609606c0 7.41834 5.972 13.48364 13.48365 13.48364 7.46499 0 13.48364-6.0653 13.48364-13.48364z" transform="rotate(-90)"/>
    <path d="m-158.32542-89.510696v-16.609604c0-1.44635-1.11975-2.56609-2.56609-2.56609s-2.61275 1.11974-2.61275 2.56609v16.609604c0 4.572308-3.68584 8.304804-8.3048 8.304804-4.57231 0-8.30481-3.732496-8.30481-8.304804v-16.609604c0-1.44635-1.21306-2.56609-2.61274-2.56609-1.44634 0-2.56609 1.11974-2.56609 2.56609v16.609604c0 7.418336 5.97199 13.483642 13.48364 13.483642 7.46499 0 13.48364-6.065306 13.48364-13.483642z" transform="matrix(0 -1 -1 0 0 0)"/>
  </g>
</svg>
