<svg height="24" width="24" xmlns="http://www.w3.org/2000/svg">
  <circle cx="12" cy="12" fill="#d8d8d8" r="11"/>
  <path d="m8.0044984 7.9999868h.9999874.030236c.2539842.011717.511748.1289197.6874961.3124914l2.2812851 2.2812508 2.312466-2.2812508c.265701-.2304756.445342-.3047056.687534-.3124914h.999999v1.0000026c0 .2851653-.03402.5507792-.249827.7499981l-2.281247 2.2812515 2.24999 2.249998c.187465.187502.281197.453127.281197.718753v.999998h-1.000036c-.265701 0-.531251-.09377-.718753-.281234l-2.281247-2.281251-2.2812475 2.281251c-.1874646.187502-.4531276.281234-.7187528.281234h-.9999874v-.999998c0-.265626.093732-.531251.2811968-.718753l2.2812469-2.249998-2.2812469-2.2812515c-.2108976-.195326-.3046299-.4687484-.2811968-.7499981zm0 0" fill="#2b2b2b"/>
</svg>
