<svg height="24" width="24" xmlns="http://www.w3.org/2000/svg">
  <circle cx="12" cy="12" fill="#cfcfcf" r="11"/>
  <path d="m8.0045013 7.9999864h.9999874.030236c.2539842.011717.511748.1289197.6874961.3124914l2.2812852 2.2812512 2.312466-2.2812512c.265701-.2304756.445342-.3047056.687534-.3124914h.999999v1.0000025c0 .2851654-.03402.5507793-.249827.7499982l-2.281247 2.2812509 2.24999 2.249998c.187465.187503.281197.453128.281197.718753v.999999h-1.000036c-.265701 0-.531251-.09377-.718753-.281235l-2.281247-2.281251-2.2812476 2.281251c-.1874646.187502-.4531276.281235-.7187528.281235h-.9999874v-.999999c0-.265625.093732-.53125.2811968-.718753l2.281247-2.249998-2.281247-2.2812509c-.2108976-.195326-.3046299-.4687484-.2811968-.7499982zm0 0" fill="#2b2b2b"/>
</svg>
