<svg height="24" width="24" xmlns="http://www.w3.org/2000/svg" xmlns:xlink="http://www.w3.org/1999/xlink">
  <linearGradient id="a" gradientUnits="userSpaceOnUse" x1="12.014702" x2="12.014702" y1="11.677387" y2="2.02771">
    <stop offset="0" stop-color="#fff" stop-opacity="0"/>
    <stop offset="1" stop-color="#fff" stop-opacity=".321569"/>
  </linearGradient>
  <linearGradient id="b" gradientTransform="matrix(.73329161 0 0 -.73329161 -20.998086 5.400411)" gradientUnits="userSpaceOnUse" x1="45.0214" x2="45.0214" y1="-9.4725" y2="-23.604">
    <stop offset="0" stop-color="#1d1d1d" stop-opacity="0"/>
    <stop offset="1"/>
  </linearGradient>
  <circle cx="12.000035" cy="12.000035" fill="#f8f8f7" r="10.633389" stroke="#e7e5e4" stroke-width=".733292"/>
  <path d="m2.0995003 12.000036a9.9005733 9.9005733 0 1 1 19.8011457 0" fill="none" stroke="url(#a)" stroke-width=".733292"/>
  <path d="m1.3681153 12.000036c0 5.871833 4.760089 10.631922 10.6319207 10.631922a10.631995 10.631995 0 0 0 10.631922-10.631922" fill="none" opacity=".1" stroke="url(#b)" stroke-width=".734978"/>
  <path d="m8.286 16.717028.465-.001c.255-.011.44-.199.618-.383l2.634-2.632 2.666 2.633c.266.231.376.377.617.384h.435v-1.035c0-.286-.105.121-.321-.079l-2.635-2.635 2.603-2.603c.188-.188.351-.3840002.351-.6490002v-.934h-.434c-.265 0-.459.664-.648.852l-2.634 2.6340002-2.635-2.6340002c-.193-.185-.381-.857-.649-.852h-.434v.935c0 .265.164.4590002.352.6480002l2.635 2.604-2.633 2.634c-.205.193-.38-.202-.353.079z" fill="#fff"/>
  <path d="m8.286 8.284.465.001c.255.011.44.199.618.383l2.634 2.632 2.665-2.633c.266-.231.376-.377.617-.384h.435v.435c0 .286-.105.479-.321.679l-2.634 2.635 2.603 2.603c.188.188.351.384.351.649v.434h-.434c-.265 0-.459-.164-.648-.352l-2.634-2.634-2.635 2.634c-.193.185-.381.357-.649.352l-.434.001v-.435c0-.265.164-.459.352-.648l2.635-2.604-2.633-2.634c-.205-.193-.38-.399-.353-.679z" fill="#2e3436"/>
</svg>
