<svg height="13" width="12" xmlns="http://www.w3.org/2000/svg">
  <g fill-rule="evenodd" transform="matrix(.01265624987 0 0 -.01265624987 .93221665109 11.58413566734)">
    <path d="m433 9.64453c236.059 0 427.426 191.36747 427.426 427.42547 0 236.063-191.367 427.43-427.426 427.43-236.066 0-427.43359-191.367-427.43359-427.43 0-236.058 191.36759-427.42547 427.43359-427.42547" fill="#d52735"/>
    <path d="m433 45.9961c215.98 0 391.07 175.0939 391.07 391.0739 0 215.989-175.09 391.078-391.07 391.078-215.988 0-391.0781-175.089-391.0781-391.078 0-215.98 175.0901-391.0739 391.0781-391.0739" fill="#d52735"/>
    <g fill="#9f1d2b">
      <path d="m231.395 285.789 352.886 352.883c13.657 13.66 36 13.66 49.664 0l.653-.656c13.66-13.657 13.66-36.004.004-49.661l-352.887-352.882c-13.66-13.66-36.004-13.66-49.66 0l-.66.652c-13.657 13.66-13.657 36.004 0 49.664"/>
      <path d="m281.715 638.672 352.883-352.883c13.656-13.656 13.656-36.004 0-49.664l-.657-.652c-13.66-13.66-36.003-13.66-49.66 0l-352.886 352.882c-13.661 13.657-13.661 36.004 0 49.661l.656.656c13.66 13.66 36.004 13.66 49.664 0"/>
    </g>
  </g>
</svg>
