<svg height="16" width="16" xmlns="http://www.w3.org/2000/svg" xmlns:xlink="http://www.w3.org/1999/xlink">
  <linearGradient id="a" gradientUnits="userSpaceOnUse" x1="52.359981" x2="1070.405585" y1="502.210927" y2="504.028187">
    <stop offset="0" stop-color="#d300dc"/>
    <stop offset="1" stop-color="#8700ff"/>
  </linearGradient>
  <g fill-rule="evenodd" transform="matrix(.01265625 0 0 -.01265625 .92804 14.51988)">
    <path d="m565.94519-50.875303c305.456 0 553.08141 247.625793 553.08141 553.085743 0 305.46122-247.62541 553.08676-553.08141 553.08676-305.4651 0-553.091405-247.62554-553.091405-553.08676 0-305.45995 247.626305-553.085743 553.091405-553.085743" fill="#b800d2"/>
    <path d="m565.94299-11.369763c283.64076 0 513.57741 229.941723 513.57741 513.582483 0 283.64206-229.93665 513.57888-513.57741 513.57888-283.646 0-513.583005-229.93682-513.583005-513.57888 0-283.64076 229.937005-513.582483 513.583005-513.582483" fill="url(#a)"/>
    <path d="m317.36351 650.00117h267.199c35.579 0 64.692-29.113 64.692-64.695v-267.196zm232.324-436.211h-268.253c-35.583 0-64.692 29.109-64.692 64.691v268.254z" fill="#432f52" transform="matrix(1.3132489 0 0 1.3132489 -9.862536 -52.033006)"/>
  </g>
</svg>
