<svg height="16" width="16" xmlns="http://www.w3.org/2000/svg" xmlns:xlink="http://www.w3.org/1999/xlink">
  <linearGradient id="a" gradientUnits="userSpaceOnUse" x1="45.056506" x2="875.71759" y1="513.01528" y2="547.94849">
    <stop offset="0" stop-color="#f7f206"/>
    <stop offset="1" stop-color="#ffbb24"/>
  </linearGradient>
  <g fill-rule="evenodd" transform="matrix(.01265624987 0 0 -.01265624987 .92975364307 14.49284980666)">
    <path d="m558.63645-40.071141c305.46261 0 553.08915 247.626261 553.08915 553.088871 0 305.45744-247.62654 553.08397-553.08915 553.08397-305.46132 0-553.0885503-247.62653-553.0885503-553.08397 0-305.46261 247.6272303-553.088871 553.0885503-553.088871" fill="#e5c206"/>
    <path d="m558.63936-.56504285c283.64212 0 513.57764 229.93706285 513.57764 513.58312285 0 283.64081-229.93552 513.57752-513.57764 513.57752-283.64081 0-513.582854-229.93671-513.582854-513.57752 0-283.64606 229.942044-513.58312285 513.582854-513.58312285" fill="url(#a)"/>
  </g>
</svg>
