<?xml version="1.0" encoding="UTF-8" standalone="no"?>
<svg
   xmlns:dc="http://purl.org/dc/elements/1.1/"
   xmlns:cc="http://creativecommons.org/ns#"
   xmlns:rdf="http://www.w3.org/1999/02/22-rdf-syntax-ns#"
   xmlns:svg="http://www.w3.org/2000/svg"
   xmlns="http://www.w3.org/2000/svg"
   xmlns:sodipodi="http://sodipodi.sourceforge.net/DTD/sodipodi-0.dtd"
   xmlns:inkscape="http://www.inkscape.org/namespaces/inkscape"
   height="24"
   width="24"
   version="1.1"
   id="svg8"
   sodipodi:docname="close-active.svg"
   inkscape:version="1.0 (6e3e5246a0, 2020-05-07)">
  <metadata
     id="metadata14">
    <rdf:RDF>
      <cc:Work
         rdf:about="">
        <dc:format>image/svg+xml</dc:format>
        <dc:type
           rdf:resource="http://purl.org/dc/dcmitype/StillImage" />
      </cc:Work>
    </rdf:RDF>
  </metadata>
  <defs
     id="defs12" />
  <sodipodi:namedview
     inkscape:document-rotation="0"
     pagecolor="#ffffff"
     bordercolor="#666666"
     borderopacity="1"
     objecttolerance="10"
     gridtolerance="10"
     guidetolerance="10"
     inkscape:pageopacity="0"
     inkscape:pageshadow="2"
     inkscape:window-width="1366"
     inkscape:window-height="736"
     id="namedview10"
     showgrid="false"
     inkscape:zoom="7.0857993"
     inkscape:cx="20.352002"
     inkscape:cy="17.537798"
     inkscape:window-x="0"
     inkscape:window-y="32"
     inkscape:window-maximized="1"
     inkscape:current-layer="svg8" />
  <g
     inkscape:groupmode="layer"
     id="layer1"
     inkscape:label="Layer 1">
    <g
       id="g959"
       transform="translate(-14.464019,-0.21290005)">
      <g
         id="g953">
        <path
           inkscape:connector-curvature="0"
           id="path1717-3"
           d="m 26.46408,19.2129 c 3.865928,0 6.999939,-3.134 6.999939,-7 0,-3.8659998 -3.134011,-6.9999999 -6.999939,-6.9999999 -3.866042,0 -7.000061,3.1340001 -7.000061,6.9999999 0,3.866 3.134019,7 7.000061,7"
           style="fill:#cb4e43;fill-opacity:1;fill-rule:evenodd;stroke:none;stroke-width:1" />
        <path
           inkscape:connector-curvature="0"
           id="path1719-0"
           d="m 26.464087,18.7129 c 3.58978,0 6.499932,-2.910278 6.499932,-6.50005 0,-3.5898723 -2.910152,-6.4999501 -6.499932,-6.4999501 -3.589914,0 -6.500068,2.9100778 -6.500068,6.4999501 0,3.589772 2.910154,6.50005 6.500068,6.50005"
           style="fill:#fe6254;fill-opacity:1;fill-rule:evenodd;stroke:none;stroke-width:0.999996" />
      </g>
      <path
         inkscape:connector-curvature="0"
         id="path1730-4"
         d="m 26.464046,14.837944 c 1.449719,0 2.624973,-1.1753 2.624973,-2.625087 0,-1.4497 -1.175254,-2.6250006 -2.624973,-2.6250006 -1.449773,0 -2.625027,1.1753006 -2.625027,2.6250006 0,1.449787 1.175254,2.625087 2.625027,2.625087"
         style="opacity:0.5;fill:#000000;fill-opacity:1;fill-rule:evenodd;stroke:none;stroke-width:0.403846" />
    </g>
  </g>
</svg>
