<?xml version="1.0" encoding="UTF-8" standalone="no"?>
<svg
   xmlns:dc="http://purl.org/dc/elements/1.1/"
   xmlns:cc="http://creativecommons.org/ns#"
   xmlns:rdf="http://www.w3.org/1999/02/22-rdf-syntax-ns#"
   xmlns:svg="http://www.w3.org/2000/svg"
   xmlns="http://www.w3.org/2000/svg"
   xmlns:sodipodi="http://sodipodi.sourceforge.net/DTD/sodipodi-0.dtd"
   xmlns:inkscape="http://www.inkscape.org/namespaces/inkscape"
   height="24"
   width="24"
   version="1.1"
   id="svg8"
   sodipodi:docname="maximize-active.svg"
   inkscape:version="1.0 (6e3e5246a0, 2020-05-07)">
  <metadata
     id="metadata14">
    <rdf:RDF>
      <cc:Work
         rdf:about="">
        <dc:format>image/svg+xml</dc:format>
        <dc:type
           rdf:resource="http://purl.org/dc/dcmitype/StillImage" />
      </cc:Work>
    </rdf:RDF>
  </metadata>
  <defs
     id="defs12" />
  <sodipodi:namedview
     inkscape:document-rotation="0"
     pagecolor="#ffffff"
     bordercolor="#666666"
     borderopacity="1"
     objecttolerance="10"
     gridtolerance="10"
     guidetolerance="10"
     inkscape:pageopacity="0"
     inkscape:pageshadow="2"
     inkscape:window-width="1366"
     inkscape:window-height="736"
     id="namedview10"
     showgrid="false"
     inkscape:zoom="10.020834"
     inkscape:cx="19.18478"
     inkscape:cy="16.842892"
     inkscape:window-x="0"
     inkscape:window-y="32"
     inkscape:window-maximized="1"
     inkscape:current-layer="layer1" />
  <g
     inkscape:groupmode="layer"
     id="layer1"
     inkscape:label="Layer 1"
     style="display:inline">
    <g
       id="g63"
       transform="translate(-15.3303,-0.4087)">
      <path
         inkscape:connector-curvature="0"
         id="path6391-6"
         d="m 27.330361,19.4087 c 3.865929,0 6.999939,-3.134 6.999939,-7 0,-3.866 -3.13401,-7 -6.999939,-7 -3.866043,0 -7.000062,3.134 -7.000062,7 0,3.866 3.134019,7 7.000062,7"
         style="fill:#20a932;fill-opacity:1;fill-rule:evenodd;stroke:none" />
      <path
         inkscape:connector-curvature="0"
         id="path6393-4"
         d="m 27.330367,18.9088 c 3.589781,0 6.499933,-2.9103 6.499933,-6.5001 0,-3.5899 -2.910152,-6.5 -6.499933,-6.5 -3.589914,0 -6.500068,2.9101 -6.500068,6.5 0,3.5898 2.910154,6.5001 6.500068,6.5001"
         style="fill:#28d33f;fill-opacity:1;fill-rule:evenodd;stroke:none" />
      <path
         inkscape:connector-curvature="0"
         style="opacity:0.5;fill:#000000;fill-opacity:1;stroke:none;stroke-width:2;stroke-linecap:round;stroke-linejoin:round;stroke-miterlimit:4;stroke-dasharray:none;stroke-opacity:1"
         d="m 27.33029,8.406747 c -0.554,0 -1,0.446 -1,1 v 2 h -2 c -0.554,0 -1,0.446 -1,1 0,0.554 0.446,1 1,1 h 2 v 2 c 0,0.554 0.446,1 1,1 0.554,0 1,-0.446 1,-1 v -2 h 2 c 0.554,0 1,-0.446 1,-1 0,-0.554 -0.446,-1 -1,-1 h -2 v -2 c 0,-0.554 -0.446,-1 -1,-1 z"
         id="path6395-9" />
    </g>
  </g>
</svg>
