<svg height="16" width="16" xmlns="http://www.w3.org/2000/svg">
  <path d="m8 1a7 7 0 0 0 -7 7 7 7 0 0 0 7 7 7 7 0 0 0 7-7 7 7 0 0 0 -7-7zm-2.9980469 4h.75c.00778-.00009.0155965-.000345.0234375 0 .1911381.0084.382455.0964389.515625.234375l1.7109375 1.7109375 1.7324219-1.7109375c.1991407-.1728699.335074-.2291253.515625-.234375h.75v.75c0 .2148463-.025823.4129919-.1875.5625l-1.7109375 1.7109375 1.6874995 1.6875c.141085.141124.210933.3400935.210938.5390625v.75h-.75c-.198898-.000007-.397995-.069836-.5390625-.210938l-1.7089844-1.710937-1.7109375 1.710937c-.1410675.141138-.3401732.210938-.5390625.210938h-.75v-.75c-.0000022-.198962.0698499-.3979385.2109375-.5390625l1.7109375-1.6875-1.7109375-1.7109375c-.1579944-.1459682-.2273635-.3519436-.2109375-.5625z" fill="#ef2929"/>
</svg>
