<svg height="16" width="16" xmlns="http://www.w3.org/2000/svg">
  <g transform="matrix(3.7795 0 0 3.7795 -322 -580.58)">
    <g enable-background="new" fill-rule="evenodd" transform="matrix(.34018 0 0 .34018 83.2301 -198.212012)">
      <path d="m12.003 1045.9c3.0068 0 5.4444-2.4376 5.4444-5.4445s-2.4376-5.4444-5.4444-5.4444c-3.0069 0-5.4445 2.4375-5.4445 5.4444s2.4376 5.4445 5.4445 5.4445" fill="#cb4e43" stroke-width=".77778"/>
      <path d="m12.003 1045.5c2.792 0 5.0555-2.2635 5.0555-5.0556 0-2.7922-2.2635-5.0557-5.0555-5.0557-2.7922 0-5.0556 2.2635-5.0556 5.0557 0 2.7921 2.2635 5.0556 5.0556 5.0556" fill="#fe6254" stroke-width=".76471"/>
    </g>
    <path d="m86.564 154.96c-.10365.10364-.10365.27051 0 .37417l.37417.37418-.37417.37417c-.10365.10366-.10365.27054 0 .37417.10364.10367.27053.10367.37417 0l.37418-.37417.37418.37417c.10364.10367.27053.10367.37417 0 .10365-.10363.10365-.27051 0-.37417l-.37417-.37417.37417-.37418c.10365-.10366.10365-.27053 0-.37417-.10364-.10367-.27053-.10367-.37417 0l-.37418.37417-.37418-.37417c-.10364-.10367-.27053-.10367-.37417 0z" opacity=".5"/>
  </g>
</svg>
