<svg height="16" width="16" xmlns="http://www.w3.org/2000/svg">
  <g transform="matrix(3.7795 0 0 3.7795 -297 -585.53)">
    <g fill-rule="evenodd" transform="translate(-11.906 31.221)">
      <path d="m92.605 127.67c1.0229 0 1.8521-.82919 1.8521-1.8521 0-1.0229-.8292-1.8521-1.8521-1.8521s-1.8521.8292-1.8521 1.8521.8292 1.8521 1.8521 1.8521" fill="#20a932" stroke-width=".77778"/>
      <path d="m92.605 127.54c.94978 0 1.7198-.77006 1.7198-1.7198 0-.94986-.76999-1.7198-1.7198-1.7198-.94985 0-1.7198.76999-1.7198 1.7198 0 .94978.76999 1.7198 1.7198 1.7198" fill="#28d33f" stroke-width=".76471"/>
    </g>
    <path d="m80.278 156.24 1.2134 1.2134v-.94877c0-.10994-.15465-.26458-.26459-.26458zm-.37413.37414v.94877c0 .10994.15464.26459.26458.26459h.94878z" opacity=".5"/>
  </g>
</svg>
