<svg height="13" width="12" xmlns="http://www.w3.org/2000/svg">
  <g fill-rule="evenodd" transform="matrix(.01265625114 0 0 -.01265625114 .89639088247 11.59398473503)">
    <path d="m435.832 9.64453c236.066 0 427.434 191.36747 427.434 427.42547 0 236.063-191.368 427.43-427.434 427.43-236.062 0-427.42966-191.367-427.42966-427.43 0-236.058 191.36766-427.42547 427.42966-427.42547" fill="#fac536"/>
    <path d="m435.832 45.9961c215.988 0 391.078 175.0939 391.078 391.0739 0 215.989-175.09 391.078-391.078 391.078-215.984 0-391.0742-175.089-391.0742-391.078 0-215.98 175.0902-391.0739 391.0742-391.0739" fill="#fac536"/>
    <path d="m186.305 472.652h499.058c19.313 0 35.114-15.8 35.114-35.117v-.93c0-19.316-15.801-35.113-35.114-35.113h-499.058c-19.317 0-35.114 15.797-35.114 35.113v.93c0 19.317 15.797 35.117 35.114 35.117" fill="#975914"/>
  </g>
</svg>
