<?xml version="1.0" encoding="UTF-8" standalone="no"?>
<!-- Created with Inkscape (http://www.inkscape.org/) -->

<svg
   xmlns:dc="http://purl.org/dc/elements/1.1/"
   xmlns:cc="http://creativecommons.org/ns#"
   xmlns:rdf="http://www.w3.org/1999/02/22-rdf-syntax-ns#"
   xmlns:svg="http://www.w3.org/2000/svg"
   xmlns="http://www.w3.org/2000/svg"
   xmlns:xlink="http://www.w3.org/1999/xlink"
   xmlns:sodipodi="http://sodipodi.sourceforge.net/DTD/sodipodi-0.dtd"
   xmlns:inkscape="http://www.inkscape.org/namespaces/inkscape"
   width="19"
   height="19"
   id="svg4770"
   version="1.1"
   inkscape:version="0.48+devel r"
   viewBox="0 0 19 19"
   sodipodi:docname="maximize_focused_prelight.svg">
  <defs
     id="defs4772">
    <linearGradient
       inkscape:collect="always"
       xlink:href="#linearGradient4197"
       id="linearGradient4638"
       gradientUnits="userSpaceOnUse"
       gradientTransform="translate(-1072.3622,-1053.3622)"
       x1="2.0000153"
       y1="1062.8622"
       x2="16.999975"
       y2="1062.8622" />
    <linearGradient
       id="linearGradient4197"
       inkscape:collect="always">
      <stop
         id="stop4283"
         offset="0"
         style="stop-color:#969696;stop-opacity:1" />
      <stop
         style="stop-color:#bdbdbd;stop-opacity:1"
         offset="0.50001228"
         id="stop4285" />
      <stop
         id="stop4287"
         offset="1"
         style="stop-color:#cacaca;stop-opacity:1" />
    </linearGradient>
    <linearGradient
       id="linearGradient4521"
       inkscape:collect="always">
      <stop
         id="stop4293"
         offset="0"
         style="stop-color:#ffffff;stop-opacity:1;" />
      <stop
         id="stop4295"
         offset="1"
         style="stop-color:#ffffff;stop-opacity:0;" />
    </linearGradient>
    <linearGradient
       inkscape:collect="always"
       xlink:href="#linearGradient4521"
       id="linearGradient7529"
       gradientUnits="userSpaceOnUse"
       gradientTransform="matrix(0,1,1,0,0,2125.7244)"
       x1="-1070.3622"
       y1="9.4999952"
       x2="-1055.3622"
       y2="9.4999952" />
    <linearGradient
       inkscape:collect="always"
       xlink:href="#linearGradient4521"
       id="linearGradient7535"
       gradientUnits="userSpaceOnUse"
       gradientTransform="matrix(0,1.0357118,1.0357118,0,-0.33926172,2163.6811)"
       x1="-1070.3622"
       y1="9.4999952"
       x2="-1055.3622"
       y2="9.4999952" />
  </defs>
  <sodipodi:namedview
     id="base"
     pagecolor="#ffffff"
     bordercolor="#666666"
     borderopacity="1.0"
     inkscape:pageopacity="0.0"
     inkscape:pageshadow="2"
     inkscape:zoom="30.357661"
     inkscape:cx="8.2030365"
     inkscape:cy="7.9856285"
     inkscape:document-units="px"
     inkscape:current-layer="layer1"
     showgrid="false"
     fit-margin-top="0"
     fit-margin-left="0"
     fit-margin-right="0"
     fit-margin-bottom="0" />
  <metadata
     id="metadata4775">
    <rdf:RDF>
      <cc:Work
         rdf:about="">
        <dc:format>image/svg+xml</dc:format>
        <dc:type
           rdf:resource="http://purl.org/dc/dcmitype/StillImage" />
        <dc:title></dc:title>
      </cc:Work>
    </rdf:RDF>
  </metadata>
  <g
     inkscape:label="Layer 1"
     inkscape:groupmode="layer"
     id="layer1"
     transform="translate(287.35714,-522.86219)">
    <g
       style="display:inline"
       id="g4171"
       inkscape:export-filename="maximize.png"
       inkscape:export-xdpi="90"
       inkscape:export-ydpi="90"
       transform="translate(-287.35713,-530.49999)">
      <circle
         r="8.5"
         cy="1062.8622"
         cx="9.4999924"
         id="circle4173"
         style="color:#000000;fill:#383734;fill-opacity:1;fill-rule:nonzero;stroke:none;stroke-width:8;marker:none;visibility:visible;display:inline;overflow:visible;enable-background:accumulate"
         d="m 17.999992,1062.8622 a 8.5,8.5 0 0 1 -8.4999996,8.5 8.5,8.5 0 0 1 -8.50000003,-8.5 8.5,8.5 0 0 1 8.50000003,-8.5 8.5,8.5 0 0 1 8.4999996,8.5 z" />
      <circle
         transform="matrix(0,-1,1,0,0,0)"
         style="color:#000000;fill:url(#linearGradient4638);fill-opacity:1;fill-rule:nonzero;stroke:none;stroke-width:8;marker:none;visibility:visible;display:inline;overflow:visible;enable-background:accumulate"
         id="circle4175"
         cx="-1062.8622"
         cy="9.4999952"
         r="7.49998"
         d="m -1055.3622,9.4999952 a 7.49998,7.49998 0 0 1 -7.5,7.4999798 7.49998,7.49998 0 0 1 -7.5,-7.4999798 7.49998,7.49998 0 0 1 7.5,-7.4999799 7.49998,7.49998 0 0 1 7.5,7.4999799 z" />
      <path
         style="font-style:normal;font-variant:normal;font-weight:normal;font-stretch:normal;text-indent:0;text-align:start;text-decoration:none;line-height:normal;letter-spacing:normal;word-spacing:normal;text-transform:none;direction:ltr;block-progression:tb;writing-mode:lr-tb;text-anchor:start;baseline-shift:baseline;opacity:0.07000002;color:#000000;color-interpolation:sRGB;color-interpolation-filters:linearRGB;fill:url(#linearGradient7529);fill-opacity:1;stroke:none;stroke-width:1;marker:none;visibility:visible;display:inline;overflow:visible;isolation:auto;mix-blend-mode:normal;enable-background:accumulate;clip-rule:nonzero;color-rendering:auto;image-rendering:auto;shape-rendering:auto;text-rendering:auto;font-family:sans-serif;-inkscape-font-specification:sans-serif"
         d="m 2,1062.8613 c 0,-4.1362 3.363788,-7.5 7.5,-7.5 4.136212,0 7.5,3.3638 7.5,7.5 0,4.1362 -3.363788,7.5 -7.5,7.5 -4.136212,0 -7.5,-3.3638 -7.5,-7.5 z m 1,0 c 0,3.5958 2.9042281,6.5 6.5,6.5 3.595772,0 6.5,-2.9042 6.5,-6.5 0,-3.5957 -2.904228,-6.5 -6.5,-6.5 -3.5957719,0 -6.5,2.9043 -6.5,6.5 z"
         id="circle4177"
         inkscape:connector-curvature="0" />
      <path
         style="font-style:normal;font-variant:normal;font-weight:normal;font-stretch:normal;text-indent:0;text-align:start;text-decoration:none;line-height:normal;letter-spacing:normal;word-spacing:normal;text-transform:none;direction:ltr;block-progression:tb;writing-mode:lr-tb;text-anchor:start;baseline-shift:baseline;opacity:0.07000002;color:#000000;color-interpolation:sRGB;color-interpolation-filters:linearRGB;fill:url(#linearGradient7535);fill-opacity:1;stroke:none;stroke-width:0.5;marker:none;visibility:visible;display:inline;overflow:visible;isolation:auto;mix-blend-mode:normal;enable-background:accumulate;clip-rule:nonzero;color-rendering:auto;image-rendering:auto;shape-rendering:auto;text-rendering:auto;font-family:sans-serif;-inkscape-font-specification:sans-serif"
         d="m 2,1062.8613 c 0,-4.1391 3.3608366,-7.5 7.5,-7.5 4.139163,0 7.5,3.3609 7.5,7.5 0,4.1392 -3.360837,7.5 -7.5,7.5 -4.1391634,0 -7.5,-3.3608 -7.5,-7.5 z m 0.5,0 c 0,3.869 3.1310567,7 7,7 3.868943,0 7,-3.131 7,-7 0,-3.8689 -3.131057,-7 -7,-7 -3.8689433,0 -7,3.1311 -7,7 z"
         id="circle4179"
         inkscape:connector-curvature="0" />
      <rect
         y="1053.3622"
         x="-7.3563765e-06"
         height="19"
         width="19"
         id="rect4181"
         style="color:#000000;fill:none;stroke:none;stroke-width:1;marker:none;visibility:visible;display:inline;overflow:visible;enable-background:accumulate" />
    </g>
    <path
       style="font-style:normal;font-variant:normal;font-weight:normal;font-stretch:normal;text-indent:0;text-align:start;text-decoration:none;line-height:normal;letter-spacing:normal;word-spacing:normal;text-transform:none;direction:ltr;block-progression:tb;writing-mode:lr-tb;text-anchor:start;baseline-shift:baseline;opacity:0.15;color:#000000;color-interpolation:sRGB;color-interpolation-filters:linearRGB;fill:#ffffff;fill-opacity:1;stroke:none;stroke-width:1;marker:none;visibility:visible;display:inline;overflow:visible;isolation:auto;mix-blend-mode:normal;enable-background:accumulate;clip-rule:nonzero;color-rendering:auto;image-rendering:auto;shape-rendering:auto;text-rendering:auto;font-family:sans-serif;-inkscape-font-specification:sans-serif"
       d="m -281.35742,529.86133 0,0.5 0,6.5 7,0 0,-7 -7,0 z m 1,1 5,0 0,5 -5,0 0,-5 z"
       id="rect4233"
       inkscape:connector-curvature="0" />
    <path
       style="font-style:normal;font-variant:normal;font-weight:normal;font-stretch:normal;text-indent:0;text-align:start;text-decoration:none;line-height:normal;letter-spacing:normal;word-spacing:normal;text-transform:none;direction:ltr;block-progression:tb;writing-mode:lr-tb;text-anchor:start;baseline-shift:baseline;color:#000000;color-interpolation:sRGB;color-interpolation-filters:linearRGB;fill:#51504b;fill-opacity:1;stroke:none;stroke-width:1;marker:none;visibility:visible;display:inline;overflow:visible;isolation:auto;mix-blend-mode:normal;enable-background:accumulate;clip-rule:nonzero;color-rendering:auto;image-rendering:auto;shape-rendering:auto;text-rendering:auto;font-family:sans-serif;-inkscape-font-specification:sans-serif"
       d="m -281.35742,528.86133 0,0.5 0,6.5 7,0 0,-7 -7,0 z m 1,1 5,0 0,5 -5,0 0,-5 z"
       id="rect4235"
       inkscape:connector-curvature="0" />
  </g>
</svg>
