<svg enable-background="new" height="14" width="14" xmlns="http://www.w3.org/2000/svg">
  <g transform="scale(.875)">
    <path d="m8.0000702 16c4.4182038 0 7.9999298-3.581714 7.9999298-8 0-4.4182856-3.581726-7.9999998-7.9999298-7.9999998-4.4183344 0-8.0000702 3.5817142-8.0000702 7.9999998 0 4.418286 3.5817358 8 8.0000702 8" fill="#333" fill-rule="evenodd"/>
    <path d="m8.0000702 15.428571c4.1026068 0 7.4284938-3.143927 7.4284938-7.0219023 0-3.8780832-3.325887-7.0217948-7.4284938-7.0217948-4.1027583 0-7.42864855 3.1437116-7.42864855 7.0217948 0 3.8779753 3.32589025 7.0219023 7.42864855 7.0219023" fill="#666" fill-rule="evenodd"/>
    <path d="m6.16474 4.488 5.35026 5.3502163v-4.1835496c0-.48475-.681917-1.1666667-1.166667-1.1666667zm-1.6497396 1.6497833v4.1835487c0 .48475.6819163 1.166668 1.1666663 1.166668h4.1835941z" opacity=".5"/>
  </g>
</svg>
