<svg height="16" viewBox="0 0 16 16" width="16" xmlns="http://www.w3.org/2000/svg"><circle cx="8" cy="8" fill="#d31919" r="7" stroke="#8b1111" stroke-width=".5"/><path d="m45 764h1c.01037-.00012.02079-.00046.03125 0 .25495.0112.50987.12858.6875.3125l2.2812 2.2812 2.3125-2.2812c.26562-.2305.44667-.3055.6875-.3125h1v1c0 .28647-.03434.55065-.25.75l-2.2812 2.2812 2.25 2.25c.18819.18817.28124.45345.28125.71875v1h-1c-.2653-.00001-.53059-.0931-.71875-.28125l-2.2812-2.2812-2.2812 2.2812c-.18816.18819-.45346.28125-.71875.28125h-1v-1c-.000003-.26529.09306-.53058.28125-.71875l2.2812-2.25-2.2812-2.2812c-.21074-.19463-.30316-.46925-.28125-.75v-1z" opacity=".5" transform="matrix(.75 0 0 .75 -28.75 -568.0753)"/><path d="m0 0h16v16h-16z" fill="none"/></svg>