<svg height="18" width="18" xmlns="http://www.w3.org/2000/svg">
  <path d="m9 1c-4.4092723 0-8 3.5907288-8 8 0 4.409263 3.5907278 8 8 8 4.409272 0 8-3.590736 8-8 0-4.4092724-3.590728-8-8-8zm0 1.5c3.598539 0 6.5 2.9014608 6.5 6.5 0 3.598529-2.901461 6.5-6.5 6.5-3.5985394 0-6.5-2.90147-6.5-6.5 0-3.5985404 2.9014607-6.5 6.5-6.5zm-2.0820312 3.4980469-.9199219.9199219 2.0859375 2.0820312-2.0859375 2.082031.9199219.919922 2.0820312-2.0820311 2.085938 2.0820311.914062-.919922-2.0800781-2.082031 2.0820311-2.0820312-.919922-.9199219-2.082031 2.0839843z" fill="#fff"/>
</svg>
