<svg height="19" viewBox="0 0 19 19" width="19" xmlns="http://www.w3.org/2000/svg" xmlns:xlink="http://www.w3.org/1999/xlink">
  <linearGradient id="a" gradientUnits="userSpaceOnUse" x1="-1070.362185" x2="-1055.362225" y1="9.5" y2="9.5">
    <stop offset="0" stop-color="#e67144"/>
    <stop offset=".50001228" stop-color="#ed8b67"/>
    <stop offset="1" stop-color="#f9cbbd"/>
  </linearGradient>
  <linearGradient id="b" gradientUnits="userSpaceOnUse" x1="1060.3622" x2="1070.3622" xlink:href="#c" y1="9.499995" y2="9.499995"/>
  <linearGradient id="c">
    <stop offset="0" stop-color="#fff"/>
    <stop offset="1" stop-color="#fff" stop-opacity="0"/>
  </linearGradient>
  <linearGradient id="d" gradientUnits="userSpaceOnUse" x1="1060.362177" x2="1070.362181" xlink:href="#c" y1="9.499995" y2="9.499995"/>
  <g transform="translate(4.714293 -652.36219)">
    <g transform="translate(-4.714286 -400.99999)">
      <circle cx="9.499992" cy="1062.8622" fill="#d0c7bf" r="8.5"/>
      <circle cx="-1062.8622" cy="9.499995" fill="url(#a)" r="7.49998" transform="rotate(-90)"/>
      <g fill="none">
        <circle cx="1062.8622" cy="9.499995" opacity=".25" r="6.999998" stroke="url(#b)" transform="matrix(0 1 1 0 0 0)"/>
        <circle cx="1062.8622" cy="9.499995" opacity=".25" r="7.24998" stroke="url(#d)" stroke-width=".5" transform="matrix(0 1 1 0 0 0)"/>
        <path d="m-.000007 1053.3622h19v19h-19z"/>
      </g>
    </g>
    <path d="m2.4849245 659.85555-.70703.707.35351.3535 1.94727 1.9473-1.94727 1.9453-.35351.3535.70703.707.35351-.3535 1.94727-1.9472 1.94726 1.9472.35352.3535.70703-.707-.35351-.3535-1.94727-1.9453 1.94727-1.9473.35351-.3535-.70703-.707-.35352.3535-1.94726 1.9472-1.94727-1.9472z" fill="#fff" opacity=".25"/>
    <g fill="#7f4025">
      <path d="m7.0864845 658.78515-.39063.3886-4.5996 4.5996-.38868.3887.77735.7774.39062-.3887 4.59961-4.5996.38867-.3887z"/>
      <path d="m2.4849245 658.78515-.77735.7773.38868.3887 4.5996 4.5996.39063.3887.77734-.7774-.38867-.3887-4.59961-4.5996z"/>
    </g>
  </g>
</svg>
