<?xml version="1.0" encoding="UTF-8" standalone="no"?>
<!-- Created with Inkscape (http://www.inkscape.org/) -->

<svg
   xmlns:dc="http://purl.org/dc/elements/1.1/"
   xmlns:cc="http://creativecommons.org/ns#"
   xmlns:rdf="http://www.w3.org/1999/02/22-rdf-syntax-ns#"
   xmlns:svg="http://www.w3.org/2000/svg"
   xmlns="http://www.w3.org/2000/svg"
   xmlns:xlink="http://www.w3.org/1999/xlink"
   xmlns:sodipodi="http://sodipodi.sourceforge.net/DTD/sodipodi-0.dtd"
   xmlns:inkscape="http://www.inkscape.org/namespaces/inkscape"
   width="19"
   height="19"
   id="svg4747"
   version="1.1"
   inkscape:version="0.48+devel r"
   viewBox="0 0 19 19"
   sodipodi:docname="close_focused_normal.svg">
  <defs
     id="defs4749">
    <linearGradient
       inkscape:collect="always"
       xlink:href="#linearGradient4509"
       id="linearGradient4787"
       gradientUnits="userSpaceOnUse"
       gradientTransform="translate(-1072.3622,-1053.3622)"
       x1="2.0000153"
       y1="1062.8622"
       x2="16.999975"
       y2="1062.8622" />
    <linearGradient
       inkscape:collect="always"
       id="linearGradient4509">
      <stop
         style="stop-color:#e77041;stop-opacity:1"
         offset="0"
         id="stop4885" />
      <stop
         id="stop4887"
         offset="0.50001228"
         style="stop-color:#f17d4e;stop-opacity:1" />
      <stop
         style="stop-color:#f9b39c;stop-opacity:1"
         offset="1"
         id="stop4889" />
    </linearGradient>
    <linearGradient
       inkscape:collect="always"
       xlink:href="#linearGradient4521"
       id="linearGradient4789"
       gradientUnits="userSpaceOnUse"
       gradientTransform="translate(2125.7244,0)"
       x1="-1065.3622"
       y1="9.4999952"
       x2="-1055.3622"
       y2="9.4999952" />
    <linearGradient
       id="linearGradient4521"
       inkscape:collect="always">
      <stop
         id="stop4293"
         offset="0"
         style="stop-color:#ffffff;stop-opacity:1;" />
      <stop
         id="stop4295"
         offset="1"
         style="stop-color:#ffffff;stop-opacity:0;" />
    </linearGradient>
    <linearGradient
       inkscape:collect="always"
       xlink:href="#linearGradient4521"
       id="linearGradient4791"
       gradientUnits="userSpaceOnUse"
       gradientTransform="matrix(1.0357118,0,0,1.0357118,2163.6811,-0.33926172)"
       x1="-1065.276"
       y1="9.4999952"
       x2="-1055.6208"
       y2="9.4999952" />
  </defs>
  <sodipodi:namedview
     id="base"
     pagecolor="#ffffff"
     bordercolor="#666666"
     borderopacity="1.0"
     inkscape:pageopacity="0.0"
     inkscape:pageshadow="2"
     inkscape:zoom="15.543122"
     inkscape:cx="1.5415261"
     inkscape:cy="18.71954"
     inkscape:document-units="px"
     inkscape:current-layer="layer1"
     showgrid="false"
     fit-margin-top="0"
     fit-margin-left="0"
     fit-margin-right="0"
     fit-margin-bottom="0" />
  <metadata
     id="metadata4752">
    <rdf:RDF>
      <cc:Work
         rdf:about="">
        <dc:format>image/svg+xml</dc:format>
        <dc:type
           rdf:resource="http://purl.org/dc/dcmitype/StillImage" />
        <dc:title></dc:title>
      </cc:Work>
    </rdf:RDF>
  </metadata>
  <g
     inkscape:label="Layer 1"
     inkscape:groupmode="layer"
     id="layer1"
     transform="translate(295.60105,-849.03082)">
    <g
       style="display:inline"
       id="g4775"
       inkscape:export-filename="close.png"
       inkscape:export-xdpi="90"
       inkscape:export-ydpi="90"
       transform="translate(-295.60104,-204.33136)">
      <circle
         r="8.5"
         cy="1062.8622"
         cx="9.4999924"
         id="circle4777"
         style="color:#000000;fill:#d0c7bf;fill-opacity:1;fill-rule:nonzero;stroke:none;stroke-width:8;marker:none;visibility:visible;display:inline;overflow:visible;enable-background:accumulate"
         d="m 17.999992,1062.8622 a 8.5,8.5 0 0 1 -8.4999996,8.5 8.5,8.5 0 0 1 -8.50000003,-8.5 8.5,8.5 0 0 1 8.50000003,-8.5 8.5,8.5 0 0 1 8.4999996,8.5 z" />
      <circle
         transform="matrix(0,-1,1,0,0,0)"
         style="color:#000000;fill:url(#linearGradient4787);fill-opacity:1;fill-rule:nonzero;stroke:none;stroke-width:8;marker:none;visibility:visible;display:inline;overflow:visible;enable-background:accumulate"
         id="circle4779"
         cx="-1062.8622"
         cy="9.4999952"
         r="7.49998"
         d="m -1055.3622,9.4999952 a 7.49998,7.49998 0 0 1 -7.5,7.4999798 7.49998,7.49998 0 0 1 -7.5,-7.4999798 7.49998,7.49998 0 0 1 7.5,-7.4999799 7.49998,7.49998 0 0 1 7.5,7.4999799 z" />
      <circle
         r="6.9999976"
         cy="9.4999952"
         cx="1062.8622"
         id="circle4781"
         style="opacity:0.25;color:#000000;fill:none;stroke:url(#linearGradient4789);stroke-width:1;stroke-miterlimit:4;stroke-dasharray:none;marker:none;visibility:visible;display:inline;overflow:visible;enable-background:accumulate"
         transform="matrix(0,1,1,0,0,0)"
         d="m 1069.8622,9.4999952 a 6.9999976,6.9999976 0 0 1 -7,6.9999978 6.9999976,6.9999976 0 0 1 -7,-6.9999978 6.9999976,6.9999976 0 0 1 7,-6.9999976 6.9999976,6.9999976 0 0 1 7,6.9999976 z" />
      <circle
         transform="matrix(0,1,1,0,0,0)"
         style="opacity:0.25;color:#000000;fill:none;stroke:url(#linearGradient4791);stroke-width:0.5;stroke-miterlimit:4;stroke-dasharray:none;marker:none;visibility:visible;display:inline;overflow:visible;enable-background:accumulate"
         id="circle4783"
         cx="1062.8622"
         cy="9.4999952"
         r="7.24998"
         d="m 1070.1122,9.4999952 a 7.24998,7.24998 0 0 1 -7.25,7.2499798 7.24998,7.24998 0 0 1 -7.25,-7.2499798 7.24998,7.24998 0 0 1 7.25,-7.2499799 7.24998,7.24998 0 0 1 7.25,7.2499799 z" />
      <rect
         y="1053.3622"
         x="-7.3563765e-06"
         height="19"
         width="19"
         id="rect4785"
         style="color:#000000;fill:none;stroke:none;stroke-width:1;marker:none;visibility:visible;display:inline;overflow:visible;enable-background:accumulate" />
    </g>
    <path
       style="font-style:normal;font-variant:normal;font-weight:normal;font-stretch:normal;text-indent:0;text-align:start;text-decoration:none;line-height:normal;letter-spacing:normal;word-spacing:normal;text-transform:none;direction:ltr;block-progression:tb;writing-mode:lr-tb;text-anchor:start;baseline-shift:baseline;opacity:0.25;color:#000000;color-interpolation:sRGB;color-interpolation-filters:linearRGB;fill:#ffffff;fill-opacity:1;stroke:none;stroke-width:1;marker:none;visibility:visible;display:inline;overflow:visible;isolation:auto;mix-blend-mode:normal;enable-background:accumulate;clip-rule:nonzero;color-rendering:auto;image-rendering:auto;shape-rendering:auto;text-rendering:auto;font-family:sans-serif;-inkscape-font-specification:sans-serif"
       d="m -288.40183,856.52418 -0.70703,0.707 0.35351,0.3535 1.94727,1.9473 -1.94727,1.9453 -0.35351,0.3535 0.70703,0.707 0.35351,-0.3535 1.94727,-1.9472 1.94726,1.9472 0.35352,0.3535 0.70703,-0.707 -0.35351,-0.3535 -1.94727,-1.9453 1.94727,-1.9473 0.35351,-0.3535 -0.70703,-0.707 -0.35352,0.3535 -1.94726,1.9472 -1.94727,-1.9472 -0.35351,-0.3535 z"
       id="path4646"
       inkscape:connector-curvature="0" />
    <path
       style="font-style:normal;font-variant:normal;font-weight:normal;font-stretch:normal;text-indent:0;text-align:start;text-decoration:none;line-height:normal;letter-spacing:normal;word-spacing:normal;text-transform:none;direction:ltr;block-progression:tb;writing-mode:lr-tb;text-anchor:start;baseline-shift:baseline;color:#000000;color-interpolation:sRGB;color-interpolation-filters:linearRGB;fill:#7f4025;fill-opacity:1;stroke:none;stroke-width:1.10000002;marker:none;visibility:visible;display:inline;overflow:visible;isolation:auto;mix-blend-mode:normal;enable-background:accumulate;clip-rule:nonzero;color-rendering:auto;image-rendering:auto;shape-rendering:auto;text-rendering:auto;font-family:sans-serif;-inkscape-font-specification:sans-serif"
       d="m -283.80078,855.45312 -0.38867,0.38868 -4.59961,4.59961 -0.39063,0.38867 0.7793,0.7793 0.38867,-0.38868 4.59961,-4.60156 0.38867,-0.38867 -0.77734,-0.77735 z"
       id="path4535"
       inkscape:connector-curvature="0" />
    <path
       style="font-style:normal;font-variant:normal;font-weight:normal;font-stretch:normal;text-indent:0;text-align:start;text-decoration:none;line-height:normal;letter-spacing:normal;word-spacing:normal;text-transform:none;direction:ltr;block-progression:tb;writing-mode:lr-tb;text-anchor:start;baseline-shift:baseline;color:#000000;color-interpolation:sRGB;color-interpolation-filters:linearRGB;fill:#7f4025;fill-opacity:1;stroke:none;stroke-width:1.10000002;marker:none;visibility:visible;display:inline;overflow:visible;isolation:auto;mix-blend-mode:normal;enable-background:accumulate;clip-rule:nonzero;color-rendering:auto;image-rendering:auto;shape-rendering:auto;text-rendering:auto;font-family:sans-serif;-inkscape-font-specification:sans-serif"
       d="m -288.40039,855.45312 -0.7793,0.77735 0.39063,0.38867 4.59961,4.60156 0.38867,0.38868 0.77734,-0.7793 -0.38867,-0.38867 -4.59961,-4.59961 -0.38867,-0.38868 z"
       id="path4537"
       inkscape:connector-curvature="0" />
  </g>
</svg>
