<svg height="19" width="19" xmlns="http://www.w3.org/2000/svg" xmlns:xlink="http://www.w3.org/1999/xlink">
  <linearGradient id="a" gradientUnits="userSpaceOnUse" x1="-16.999985" x2="-2.000025" y1="9.5" y2="9.5">
    <stop offset="0" stop-color="#e77041"/>
    <stop offset=".50001228" stop-color="#f17d4e"/>
    <stop offset="1" stop-color="#f9b39c"/>
  </linearGradient>
  <linearGradient id="b" x1="7" x2="17" xlink:href="#c" y1="9.500005" y2="9.500005"/>
  <linearGradient id="c" gradientUnits="userSpaceOnUse">
    <stop offset="0" stop-color="#fff"/>
    <stop offset="1" stop-color="#fff" stop-opacity="0"/>
  </linearGradient>
  <linearGradient id="d" x1="6.999977" x2="16.999981" xlink:href="#c" y1="9.500005" y2="9.500005"/>
  <circle cx="9.500002" cy="9.499983" fill="#d0c7bf" r="8.5"/>
  <circle cx="-9.499983" cy="9.499995" fill="url(#a)" r="7.49998" transform="rotate(-90)"/>
  <g fill="none">
    <circle cx="9.499983" cy="9.500005" opacity=".25" r="6.999998" stroke="url(#b)" transform="matrix(0 1 1 0 0 0)"/>
    <circle cx="9.499983" cy="9.500005" opacity=".25" r="7.24998" stroke="url(#d)" stroke-width=".5" transform="matrix(0 1 1 0 0 0)"/>
    <path d="m.000003 0h19v19h-19z"/>
  </g>
  <path d="m7.19922 7.49336-.70703.707.35351.3535 1.94727 1.9473-1.94727 1.9453-.35351.3535.70703.707.35351-.3535 1.94727-1.9472 1.94726 1.9472.35352.3535.70703-.707-.35351-.3535-1.94727-1.9453 1.94727-1.9473.35351-.3535-.70703-.707-.35352.3535-1.94726 1.9472-1.94727-1.9472z" fill="#fff" opacity=".25"/>
  <g fill="#7f4025">
    <path d="m11.80027 6.4223-.38867.38868-4.59961 4.59961-.39063.38867.7793.7793.38867-.38868 4.59961-4.60156.38867-.38867z"/>
    <path d="m7.20066 6.4223-.7793.77735.39063.38867 4.59961 4.60156.38867.38868.77734-.7793-.38867-.38867-4.59961-4.59961z"/>
  </g>
</svg>
