<svg height="19" viewBox="0 0 19 19" width="19" xmlns="http://www.w3.org/2000/svg" xmlns:xlink="http://www.w3.org/1999/xlink">
  <linearGradient id="a" gradientUnits="userSpaceOnUse" x1="-1070.362185" x2="-1055.362225" y1="9.5" y2="9.5">
    <stop offset="0" stop-color="#f08054"/>
    <stop offset="1" stop-color="#f07c4e"/>
  </linearGradient>
  <linearGradient id="b" gradientUnits="userSpaceOnUse" x1="-1070.362165" x2="-1055.362165" xlink:href="#c" y1="8.999996" y2="8.999996"/>
  <linearGradient id="c">
    <stop offset="0" stop-color="#fff"/>
    <stop offset="1" stop-color="#bd9e82"/>
  </linearGradient>
  <linearGradient id="d" gradientUnits="userSpaceOnUse" x1="-1070.362191" x2="-1055.362184" xlink:href="#c" y1="9.499995" y2="9.499995"/>
  <g transform="translate(.00001 -1053.362187)">
    <circle cx="9.499992" cy="1062.8622" fill="#d0c7bf" r="8.5"/>
    <circle cx="-1062.8622" cy="9.499995" fill="url(#a)" r="7.49998" transform="rotate(-90)"/>
    <g fill="none">
      <circle cx="-1062.8622" cy="9.499995" opacity=".05" r="6.999998" stroke="url(#b)" transform="rotate(-90)"/>
      <circle cx="-1062.8622" cy="9.499995" opacity=".05" r="7.24998" stroke="url(#d)" stroke-width=".5" transform="rotate(-90)"/>
      <path d="m-.000007 1053.3622h19v19h-19z"/>
    </g>
  </g>
  <g fill="#7f4025" transform="translate(411.35715 -967.57648)">
    <path d="m-399.55637 973.99943-.39063.3886-4.5996 4.5996-.38868.3887.77735.7774.39062-.3887 4.59961-4.5996.38867-.3887z"/>
    <path d="m-404.15793 973.99943-.77735.7773.38868.3887 4.5996 4.5996.39063.3887.77734-.7774-.38867-.3887-4.59961-4.5996z"/>
  </g>
</svg>
