<svg height="19" width="19" xmlns="http://www.w3.org/2000/svg" xmlns:xlink="http://www.w3.org/1999/xlink">
  <linearGradient id="a" gradientUnits="userSpaceOnUse" x1="-16.999985" x2="-2.000025" y1="9.50001" y2="9.50001">
    <stop offset="0" stop-color="#f08054"/>
    <stop offset="1" stop-color="#f07c4e"/>
  </linearGradient>
  <linearGradient id="b" x1="-16.999965" x2="-1.999965" xlink:href="#c" y1="8.999996" y2="8.999996"/>
  <linearGradient id="c" gradientUnits="userSpaceOnUse">
    <stop offset="0" stop-color="#fff"/>
    <stop offset="1" stop-color="#bd9e82"/>
  </linearGradient>
  <linearGradient id="d" x1="-16.999991" x2="-1.999984" xlink:href="#c" y1="9.499995" y2="9.499995"/>
  <circle cx="9.500002" cy="9.499983" fill="#d0c7bf" r="8.5"/>
  <circle cx="-9.499992" cy="9.500005" fill="url(#a)" r="7.49998" transform="rotate(-90)"/>
  <g fill="none">
    <circle cx="-9.499983" cy="9.499995" opacity=".05" r="6.999998" stroke="url(#b)" transform="rotate(-90)"/>
    <circle cx="-9.499983" cy="9.499995" opacity=".05" r="7.24998" stroke="url(#d)" stroke-width=".5" transform="rotate(-90)"/>
    <path d="m.000003 0h19v19h-19z"/>
  </g>
  <g fill="#7f4025">
    <path d="m11.80078 6.42295-.39063.3886-4.5996 4.5996-.38868.3887.77735.7774.39062-.3887 4.59961-4.5996.38867-.3887z"/>
    <path d="m7.19922 6.42295-.77735.7773.38868.3887 4.5996 4.5996.39063.3887.77734-.7774-.38867-.3887-4.59961-4.5996z"/>
  </g>
</svg>
