<svg height="19" width="19" xmlns="http://www.w3.org/2000/svg" xmlns:xlink="http://www.w3.org/1999/xlink">
  <linearGradient id="a" gradientUnits="userSpaceOnUse" x1="-16.999985" x2="-2.000025" y1="9.5" y2="9.5">
    <stop offset="0" stop-color="#e67144"/>
    <stop offset=".50001228" stop-color="#ed8b67"/>
    <stop offset="1" stop-color="#f9cbbd"/>
  </linearGradient>
  <linearGradient id="b" x1="7" x2="17" xlink:href="#c" y1="9.500002" y2="9.500002"/>
  <linearGradient id="c" gradientUnits="userSpaceOnUse">
    <stop offset="0" stop-color="#fff"/>
    <stop offset="1" stop-color="#fff" stop-opacity="0"/>
  </linearGradient>
  <linearGradient id="d" x1="6.999977" x2="16.999981" xlink:href="#c" y1="9.500002" y2="9.500002"/>
  <circle cx="9.499999" cy="9.499983" fill="#d0c7bf" r="8.5"/>
  <circle cx="-9.499983" cy="9.499995" fill="url(#a)" r="7.49998" transform="rotate(-90)"/>
  <g fill="none">
    <circle cx="9.499983" cy="9.500002" opacity=".25" r="6.999998" stroke="url(#b)" transform="matrix(0 1 1 0 0 0)"/>
    <circle cx="9.499983" cy="9.500002" opacity=".25" r="7.24998" stroke="url(#d)" stroke-width=".5" transform="matrix(0 1 1 0 0 0)"/>
    <path d="m0 0h19v19h-19z"/>
  </g>
  <path d="m7.1992175 7.49336-.70703.707.35351.3535 1.94727 1.9473-1.94727 1.9453-.35351.3535.70703.707.35351-.3535 1.94727-1.9472 1.9472595 1.9472.35352.3535.70703-.707-.35351-.3535-1.94727-1.9453 1.94727-1.9473.35351-.3535-.70703-.707-.35352.3535-1.9472595 1.9472-1.94727-1.9472z" fill="#fff" opacity=".25"/>
  <g fill="#7f4025">
    <path d="m11.800777 6.42296-.390629.3886-4.5996005 4.5996-.38868.3887.77735.7774.39062-.3887 4.5996105-4.5996.38867-.3887z"/>
    <path d="m7.1992175 6.42296-.77735.7773.38868.3887 4.5995995 4.5996.39063.3887.77734-.7774-.38867-.3887-4.5996095-4.5996z"/>
  </g>
</svg>
