<svg height="19" viewBox="0 0 19 19" width="19" xmlns="http://www.w3.org/2000/svg" xmlns:xlink="http://www.w3.org/1999/xlink">
  <linearGradient id="a" gradientUnits="userSpaceOnUse" x1="-1070.362185" x2="-1055.362225" y1="9.5" y2="9.5">
    <stop offset="0" stop-color="#d5d2ce"/>
    <stop offset=".50001228" stop-color="#ece8e4"/>
    <stop offset="1" stop-color="#f7f4f3"/>
  </linearGradient>
  <linearGradient id="b" gradientUnits="userSpaceOnUse" x1="1060.3622" x2="1068.5755" xlink:href="#c" y1="9.499995" y2="9.499995"/>
  <linearGradient id="c">
    <stop offset="0" stop-color="#fff"/>
    <stop offset="1" stop-color="#fff" stop-opacity="0"/>
  </linearGradient>
  <linearGradient id="d" gradientUnits="userSpaceOnUse" x1="1060.362177" x2="1068.575578" xlink:href="#c" y1="9.499995" y2="9.499995"/>
  <g transform="translate(186.64286 -574.29076)">
    <g transform="translate(-186.64286 -479.07142)">
      <circle cx="9.499992" cy="1062.8622" fill="#d0c7bf" r="8.5"/>
      <circle cx="-1062.8622" cy="9.499995" fill="url(#a)" r="7.49998" transform="rotate(-90)"/>
      <g fill="none">
        <circle cx="1062.8622" cy="9.499995" opacity=".5" r="6.999998" stroke="url(#b)" transform="matrix(0 1 1 0 0 0)"/>
        <circle cx="1062.8622" cy="9.499995" opacity=".5" r="7.24998" stroke="url(#d)" stroke-width=".5" transform="matrix(0 1 1 0 0 0)"/>
        <path d="m-.000007 1053.3622h19v19h-19z"/>
      </g>
    </g>
    <path d="m-180.64287 581.29182v.5 6.5h7v-7zm1 1h5v5h-5z" fill="#fff" opacity=".5"/>
    <path d="m-180.64287 580.29182v.5 6.5h7v-7zm1 1h5v5h-5z" fill="#8b8379"/>
  </g>
</svg>
