<svg height="19" width="19" xmlns="http://www.w3.org/2000/svg" xmlns:xlink="http://www.w3.org/1999/xlink">
  <linearGradient id="a" gradientUnits="userSpaceOnUse" x1="-16.999985" x2="-2.000025" y1="9.5" y2="9.5">
    <stop offset="0" stop-color="#e2e1df"/>
    <stop offset=".50001228" stop-color="#f8f6f3"/>
    <stop offset="1" stop-color="#fcfbf9"/>
  </linearGradient>
  <linearGradient id="b" x1="7" x2="15.2133" xlink:href="#c" y1="9.500005" y2="9.500005"/>
  <linearGradient id="c" gradientUnits="userSpaceOnUse">
    <stop offset="0" stop-color="#fff"/>
    <stop offset="1" stop-color="#fff" stop-opacity="0"/>
  </linearGradient>
  <linearGradient id="d" x1="6.999977" x2="15.213378" xlink:href="#c" y1="9.500005" y2="9.500005"/>
  <circle cx="9.500002" cy="9.499983" fill="#d0c7bf" r="8.5"/>
  <circle cx="-9.499983" cy="9.499995" fill="url(#a)" r="7.49998" transform="rotate(-90)"/>
  <g fill="none">
    <circle cx="9.499983" cy="9.500005" opacity=".5" r="6.999998" stroke="url(#b)" transform="matrix(0 1 1 0 0 0)"/>
    <circle cx="9.499983" cy="9.500005" opacity=".5" r="7.24998" stroke="url(#d)" stroke-width=".5" transform="matrix(0 1 1 0 0 0)"/>
    <path d="m.000003 0h19v19h-19z"/>
  </g>
  <path d="m6 7.00106v.5 6.5h7v-7zm1 1h5v5h-5z" fill="#fff" opacity=".5"/>
  <path d="m6 6.00106v.5 6.5h7v-7zm1 1h5v5h-5z" fill="#8b8379"/>
</svg>
