<?xml version="1.0" encoding="UTF-8" standalone="no"?>
<!-- Created with Inkscape (http://www.inkscape.org/) -->

<svg
   xmlns:dc="http://purl.org/dc/elements/1.1/"
   xmlns:cc="http://creativecommons.org/ns#"
   xmlns:rdf="http://www.w3.org/1999/02/22-rdf-syntax-ns#"
   xmlns:svg="http://www.w3.org/2000/svg"
   xmlns="http://www.w3.org/2000/svg"
   xmlns:xlink="http://www.w3.org/1999/xlink"
   xmlns:sodipodi="http://sodipodi.sourceforge.net/DTD/sodipodi-0.dtd"
   xmlns:inkscape="http://www.inkscape.org/namespaces/inkscape"
   width="19"
   height="19"
   id="svg7526"
   version="1.1"
   inkscape:version="0.48+devel r"
   viewBox="0 0 19 19"
   sodipodi:docname="minimize_focused_prelight.svg">
  <defs
     id="defs7528">
    <linearGradient
       inkscape:collect="always"
       xlink:href="#linearGradient5023"
       id="linearGradient5037"
       gradientUnits="userSpaceOnUse"
       gradientTransform="translate(-1072.3622,-1053.3622)"
       x1="2.0000153"
       y1="1062.8622"
       x2="16.999975"
       y2="1062.8622" />
    <linearGradient
       inkscape:collect="always"
       id="linearGradient5023">
      <stop
         style="stop-color:#e2e1df;stop-opacity:1"
         offset="0"
         id="stop4157" />
      <stop
         id="stop4159"
         offset="0.50001228"
         style="stop-color:#f8f6f3;stop-opacity:1" />
      <stop
         style="stop-color:#fcfbf9;stop-opacity:1"
         offset="1"
         id="stop4161" />
    </linearGradient>
    <linearGradient
       inkscape:collect="always"
       xlink:href="#linearGradient4521"
       id="linearGradient5039"
       gradientUnits="userSpaceOnUse"
       gradientTransform="translate(2125.7244,0)"
       x1="-1065.3622"
       y1="9.4999952"
       x2="-1057.1489"
       y2="9.4999952" />
    <linearGradient
       id="linearGradient4521"
       inkscape:collect="always">
      <stop
         id="stop4293"
         offset="0"
         style="stop-color:#ffffff;stop-opacity:1;" />
      <stop
         id="stop4295"
         offset="1"
         style="stop-color:#ffffff;stop-opacity:0;" />
    </linearGradient>
    <linearGradient
       inkscape:collect="always"
       xlink:href="#linearGradient4521"
       id="linearGradient5041"
       gradientUnits="userSpaceOnUse"
       gradientTransform="matrix(1.0357118,0,0,1.0357118,2163.6811,-0.33926172)"
       x1="-1065.276"
       y1="9.4999952"
       x2="-1057.3458"
       y2="9.4999952" />
  </defs>
  <sodipodi:namedview
     id="base"
     pagecolor="#ffffff"
     bordercolor="#666666"
     borderopacity="1.0"
     inkscape:pageopacity="0.0"
     inkscape:pageshadow="2"
     inkscape:zoom="0.35"
     inkscape:cx="-287.42857"
     inkscape:cy="-423.85715"
     inkscape:document-units="px"
     inkscape:current-layer="layer1"
     showgrid="false"
     fit-margin-top="0"
     fit-margin-left="0"
     fit-margin-right="0"
     fit-margin-bottom="0" />
  <metadata
     id="metadata7531">
    <rdf:RDF>
      <cc:Work
         rdf:about="">
        <dc:format>image/svg+xml</dc:format>
        <dc:type
           rdf:resource="http://purl.org/dc/dcmitype/StillImage" />
        <dc:title></dc:title>
      </cc:Work>
    </rdf:RDF>
  </metadata>
  <g
     inkscape:label="Layer 1"
     inkscape:groupmode="layer"
     id="layer1"
     transform="translate(-6.71429,-89.505043)">
    <g
       style="display:inline"
       transform="translate(6.7142974,-963.85714)"
       inkscape:export-ydpi="90"
       inkscape:export-xdpi="90"
       inkscape:export-filename="close.png"
       id="g5025">
      <circle
         style="color:#000000;fill:#d0c7bf;fill-opacity:1;fill-rule:nonzero;stroke:none;stroke-width:8;marker:none;visibility:visible;display:inline;overflow:visible;enable-background:accumulate"
         id="circle5027"
         cx="9.4999924"
         cy="1062.8622"
         r="8.5"
         d="m 17.999992,1062.8622 a 8.5,8.5 0 0 1 -8.4999996,8.5 8.5,8.5 0 0 1 -8.50000003,-8.5 8.5,8.5 0 0 1 8.50000003,-8.5 8.5,8.5 0 0 1 8.4999996,8.5 z" />
      <circle
         r="7.49998"
         cy="9.4999952"
         cx="-1062.8622"
         id="circle5029"
         style="color:#000000;fill:url(#linearGradient5037);fill-opacity:1;fill-rule:nonzero;stroke:none;stroke-width:8;marker:none;visibility:visible;display:inline;overflow:visible;enable-background:accumulate"
         transform="matrix(0,-1,1,0,0,0)"
         d="m -1055.3622,9.4999952 a 7.49998,7.49998 0 0 1 -7.5,7.4999798 7.49998,7.49998 0 0 1 -7.5,-7.4999798 7.49998,7.49998 0 0 1 7.5,-7.4999799 7.49998,7.49998 0 0 1 7.5,7.4999799 z" />
      <circle
         transform="matrix(0,1,1,0,0,0)"
         style="opacity:0.5;color:#000000;fill:none;stroke:url(#linearGradient5039);stroke-width:1;stroke-miterlimit:4;stroke-dasharray:none;marker:none;visibility:visible;display:inline;overflow:visible;enable-background:accumulate"
         id="circle5031"
         cx="1062.8622"
         cy="9.4999952"
         r="6.9999976"
         d="m 1069.8622,9.4999952 a 6.9999976,6.9999976 0 0 1 -7,6.9999978 6.9999976,6.9999976 0 0 1 -7,-6.9999978 6.9999976,6.9999976 0 0 1 7,-6.9999976 6.9999976,6.9999976 0 0 1 7,6.9999976 z" />
      <circle
         r="7.24998"
         cy="9.4999952"
         cx="1062.8622"
         id="circle5033"
         style="opacity:0.5;color:#000000;fill:none;stroke:url(#linearGradient5041);stroke-width:0.5;stroke-miterlimit:4;stroke-dasharray:none;marker:none;visibility:visible;display:inline;overflow:visible;enable-background:accumulate"
         transform="matrix(0,1,1,0,0,0)"
         d="m 1070.1122,9.4999952 a 7.24998,7.24998 0 0 1 -7.25,7.2499798 7.24998,7.24998 0 0 1 -7.25,-7.2499798 7.24998,7.24998 0 0 1 7.25,-7.2499799 7.24998,7.24998 0 0 1 7.25,7.2499799 z" />
      <rect
         style="color:#000000;fill:none;stroke:none;stroke-width:1;marker:none;visibility:visible;display:inline;overflow:visible;enable-background:accumulate"
         id="rect5035"
         width="19"
         height="19"
         x="-7.3563765e-06"
         y="1053.3622" />
    </g>
    <rect
       y="98.505112"
       x="12.714292"
       height="1"
       width="7"
       id="rect5065"
       style="color:#000000;fill:#8b8379;fill-opacity:1;stroke:none;stroke-width:1;marker:none;visibility:visible;display:inline;overflow:visible;enable-background:accumulate" />
    <rect
       style="opacity:0.5;color:#000000;fill:#ffffff;fill-opacity:1;stroke:none;stroke-width:1;marker:none;visibility:visible;display:inline;overflow:visible;enable-background:accumulate"
       id="rect5067"
       width="7"
       height="1"
       x="12.714292"
       y="99.505112" />
  </g>
</svg>
