<svg xmlns="http://www.w3.org/2000/svg" width="24" height="24"  xmlns:v="https://vecta.io/nano"><path d="M8.2857 7.384l.4654.0005c.255.011.4397.1993.6177.3833l2.6345 2.6323 2.6656-2.6334c.266-.231.3764-.3769.6174-.3839l.4346.0004.0002 1.0347c0 .286-.1047-.1208-.3207.0792l-2.6346 2.6354 2.6035 2.6033c.188.188.3513.3837.3513.6487l.0002.9342-.4344.0002c-.265 0-.4589-.6645-.6479-.8525l-2.6345-2.6343-2.635 2.6339c-.1932.1851-.3814.8569-.6488.8525l-.4344.0006.0002-.935c.0001-.265.1636-.4594.3516-.6484l2.6351-2.6039L8.639 8.4975c-.205-.1929-.3804.2016-.3532-.0786z" fill="#070707"/><path d="M8.2861 8.2841l.4653.0005c.255.011.4397.1993.6177.3833l2.6343 2.6323 2.6654-2.6334c.266-.231.3764-.3769.6174-.3839l.4345.0004.0002.4347c0 .286-.1047.4793-.3207.6793l-2.6344 2.6354 2.6033 2.6033c.188.188.3513.3837.3513.6487l.0002.4339-.4344.0002c-.265 0-.4588-.1642-.6478-.3522l-2.6343-2.6343-2.6349 2.6339c-.1931.1851-.3813.3566-.6488.3522l-.4344.0006.0002-.4347c.0001-.265.1636-.4594.3516-.6484l2.6349-2.6039-2.6333-2.6343c-.205-.1929-.3804-.3986-.3532-.6788z" fill="#eeeeec"/></svg>