<svg height="13" width="12" xmlns="http://www.w3.org/2000/svg">
  <g fill-rule="evenodd" transform="matrix(.01265624975 0 0 -.01265624975 .8830862276 11.58866885695)">
    <path d="m437.004 9.64453c236.059 0 427.426 191.36747 427.426 427.42547 0 236.063-191.367 427.43-427.426 427.43-236.066 0-427.43369-191.367-427.43369-427.43 0-236.058 191.36769-427.42547 427.43369-427.42547" fill="#13c11e"/>
    <path d="m437.004 45.9961c215.984 0 391.074 175.0939 391.074 391.0739 0 215.989-175.09 391.078-391.074 391.078-215.988 0-391.0782-175.089-391.0782-391.078 0-215.98 175.0902-391.0739 391.0782-391.0739" fill="#13c11e"/>
    <path d="m321.367 655.176h267.199c35.579 0 64.692-29.11 64.692-64.692v-267.195zm232.324-436.207h-268.253c-35.583 0-64.692 29.109-64.692 64.691v268.254z" fill="#0b7407"/>
  </g>
</svg>
