<svg height="15" width="15" xmlns="http://www.w3.org/2000/svg" xmlns:xlink="http://www.w3.org/1999/xlink">
  <linearGradient id="a" gradientUnits="userSpaceOnUse" x1="-21" x2="-8" y1="14.49999" y2="14.49999">
    <stop offset="0" stop-color="#f7f206"/>
    <stop offset="1" stop-color="#ffbb24"/>
  </linearGradient>
  <g fill-rule="evenodd" transform="translate(22 -7)">
    <path d="m-14.49997 21c3.58985 0 6.49997-2.91014 6.49997-6.50004 0-3.58983-2.91012-6.49996-6.49997-6.49996-3.58983 0-6.50003 2.91013-6.50003 6.49996 0 3.5899 2.9102 6.50004 6.50003 6.50004" fill="url(#a)"/>
    <path d="m-18.84341 14.00432h8.2947c.32105 0 .58367.26256.58367.58367v.0154c0 .32112-.26262.58367-.58367.58367h-8.2947c-.32106 0-.58367-.26255-.58367-.58367v-.0154c0-.32111.26261-.58367.58367-.58367" fill="#0c0e14"/>
  </g>
</svg>
