<svg height="16" width="16" xmlns="http://www.w3.org/2000/svg">
  <g fill-rule="evenodd" transform="matrix(.12656249873 0 0 -.12656249873 .87737080438 14.51838441094)">
    <path d="m56.277533-3.8051186c30.546127 0 55.308677 24.7625166 55.308677 55.3086436 0 30.54561-24.76255 55.308165-55.308677 55.308165-30.545998 0-55.30861206-24.762555-55.30861206-55.308165 0-30.546127 24.76261406-55.3086436 55.30861206-55.3086436" fill="#da9e10"/>
    <g transform="matrix(1.0148899 0 0 1.0148899 -.84327 -5.031206)">
      <path d="m56.283048 5.1005059c27.94807 0 50.604272 22.6563571 50.604272 50.6048151 0 27.947941-22.656202 50.604269-50.604272 50.604269-27.947941 0-50.6047894-22.656328-50.6047894-50.604269 0-27.948458 22.6568484-50.6048151 50.6047894-50.6048151" fill="#fac536"/>
      <path d="m23.994703 60.30905h64.576819c2.499455 0 4.544076-2.044103 4.544076-4.544076v-.119823c0-2.499973-2.044621-4.544077-4.544076-4.544077h-64.576819c-2.499585 0-4.544076 2.044104-4.544076 4.544077v.119823c0 2.499973 2.044491 4.544076 4.544076 4.544076" fill="#975914"/>
    </g>
  </g>
</svg>
