<svg enable-background="new" height="24" width="24" xmlns="http://www.w3.org/2000/svg">
  <circle cx="12" cy="11.99998" fill="#f13039" r="7"/>
  <path d="m45.001573 764.10442h1c.01037-.00012.02079-.00046.03125 0 .254951.0112.50987.12858.6875.3125l2.28125 2.28125 2.3125-2.28125c.265625-.2305.446672-.3055.6875-.3125h1v1c0 .28647-.03434.55065-.25.75l-2.28125 2.28125 2.25 2.25c.188188.18817.281242.45345.28125.71875v1h-1c-.265301-.00001-.530586-.0931-.71875-.28125l-2.28125-2.28125-2.28125 2.28125c-.188164.18819-.45346.28125-.71875.28125h-1v-1c-.000003-.26529.09306-.53058.28125-.71875l2.28125-2.25-2.28125-2.28125c-.210742-.19463-.30316-.46925-.28125-.75z" fill="#fff" transform="matrix(.75 0 0 .75 -24.75 -564.078142)"/>
  <path d="m4 3.99998h16v16h-16z" fill="none"/>
</svg>
