<svg enable-background="new" height="24" width="24" xmlns="http://www.w3.org/2000/svg">
  <g transform="translate(-641 189.6378)">
    <path d="m172 58a7 7 0 0 0 -7 7 7 7 0 0 0 7 7 7 7 0 0 0 7-7 7 7 0 0 0 -7-7zm-3 3.921875h.75c.008-.00009.0156-.000345.0234 0 .19121.0084.3824.09643.51562.234375l1.71098 1.710938 1.73438-1.710938c.19921-.172875.335-.229125.51562-.234375h.75v.75c0 .214853-.0258.412987-.1875.5625l-1.71094 1.710937 1.6875 1.6875c.14114.141128.21093.340088.21094.539063v.75h-.75c-.19898-.000008-.39794-.06982-.53906-.210937l-1.71094-1.710938-1.71094 1.710938c-.14112.141142-.34009.210937-.53906.210937h-.75v-.75c0-.198967.0698-.397935.21094-.539063l1.71094-1.6875-1.71094-1.710937c-.15806-.145972-.22737-.351937-.21094-.5625z" fill="#f46067" transform="translate(481 -242.63782)"/>
    <path d="m645-185.63782h16v16h-16z" fill="none"/>
    <path d="m650.00003-180.71594h.75c.008-.00009.0156-.00035.0234 0 .19122.008.3824.0964.51563.23437l1.71093 1.71094 1.73438-1.71094c.19922-.17287.335-.22912.51562-.23437h.75v.75c0 .21485-.0257.41298-.1875.5625l-1.71093 1.71093 1.6875 1.6875c.14114.14113.21093.34009.21093.53907v.75h-.75c-.19897-.00001-.39793-.0698-.53906-.21094l-1.71094-1.71094-1.71093 1.71094c-.14113.14114-.3401.21094-.53907.21094h-.75v-.75c0-.19897.0698-.39794.21094-.53907l1.71094-1.6875-1.71094-1.71093c-.15805-.14598-.22737-.35194-.21094-.5625v-.75z" fill="#f8f8f9"/>
  </g>
</svg>
