<svg height="24" width="24" xmlns="http://www.w3.org/2000/svg">
  <ellipse cx="12" cy="11.99998" fill="#fff" opacity=".95" rx="6" ry="6.000001"/>
  <path d="m12 4.99998a7 7 0 0 0 -7 7 7 7 0 0 0 7 7 7 7 0 0 0 7-7 7 7 0 0 0 -7-7zm0 1a6 6 0 0 1 6 6 6 6 0 0 1 -6 6 6 6 0 0 1 -6-6 6 6 0 0 1 6-6z" fill="#525d76" opacity=".15"/>
  <path d="m10.799505 8.99998h3.381737c.450297 0 .816227.36847.818758.8188v3.3817zm2.407413 6.00692h-3.395078c-.450346 0-.818758-.36842-.818758-.81875v-3.39509z" fill="#7a7f8b"/>
</svg>
