<svg height="18" width="18" xmlns="http://www.w3.org/2000/svg">
  <path d="m9 1c-4.4093947 0-8 3.5906046-8 8 0 4.409395 3.5906053 8 8 8 4.409395 0 8-3.590605 8-8 0-4.4093954-3.590605-8-8-8zm0 1.5c3.598734 0 6.5 2.9012649 6.5 6.5 0 3.598735-2.901266 6.5-6.5 6.5-3.5987341 0-6.5-2.901265-6.5-6.5 0-3.5987351 2.9012659-6.5 6.5-6.5zm-1.1953125 3.5 4.1953125 4.195312v-3.3769526c-.002512-.4498073-.368587-.8183594-.818359-.8183594zm-1.8046875 1.7910156v3.3906254c0 .449842.3685289.818359.8183594.818359h3.3906246z" fill="#af3f18"/>
</svg>
