<svg height="18" viewBox="0 0 18 18" width="18" xmlns="http://www.w3.org/2000/svg">
  <g stroke="#5e5e5e">
    <path d="m-278.273195 858.527017c0-4.322359-3.504273-7.826632-7.826633-7.826632-4.322359 0-7.826633 3.504273-7.826633 7.826632 0 4.322358 3.504274 7.826632 7.826633 7.826632 4.32236 0 7.826633-3.504274 7.826633-7.826632zm0 0" fill="none" stroke-linejoin="round" stroke-width="1.619303" transform="matrix(.926324 0 0 .926324 274.021214 -786.274514)"/>
    <g fill="#5e5e5e" stroke-width=".329678" transform="matrix(.915509 0 0 .904484 270.958632 -767.52339)">
      <path d="m-283.860352 855.442915-.384008.388688-4.54836 4.608118-.388275.388689.772283.781696 5.320642-5.385496zm0 0"/>
      <path d="m-288.408712 855.442915-.772283.781695.388275.388689 4.54836 4.608118.388274.388689.768016-.781696zm0 0"/>
    </g>
  </g>
</svg>
