<svg height="18" width="18" xmlns="http://www.w3.org/2000/svg">
  <path d="m9 1c-4.409275 0-8 3.5907249-8 8 0 4.409275 3.5907265 8 8 8 4.409274 0 8-3.590726 8-8 0-4.4092736-3.590725-8-8-8zm0 1.5c3.598542 0 6.5 2.901457 6.5 6.5s-2.901457 6.5-6.5 6.5c-3.5985429 0-6.5-2.901458-6.5-6.5 0-3.5985415 2.9014586-6.5 6.5-6.5zm-1.1953125 3.5 4.1953125 4.195312v-3.3789058c-.003906-.4492179-.367188-.8164062-.816406-.8164062zm-1.8046875 1.7929688v3.3906252c0 .449218.3671882.816406.8164062.816406h3.3945318z" fill="#5e5e5e" fill-rule="evenodd"/>
</svg>
