<svg height="18" viewBox="0 0 18 18" width="18" xmlns="http://www.w3.org/2000/svg">
  <g stroke-width="1.079535" transform="matrix(.92632438 0 0 .92632447 274.02115 -786.27466)">
    <circle cx="-286.09973" cy="858.5271" fill="#e95420" r="7.826632" stroke="#e95420" stroke-linejoin="round" stroke-width="1.619303"/>
    <path d="m-.000007 1053.3622h19v19h-19z" fill="none" transform="matrix(1.0227178 0 0 1.0227177 -295.81554 -228.48087)"/>
    <circle cx="-286.09973" cy="858.5271" opacity=".25" r="7.826632" stroke="#000013" stroke-linejoin="round" stroke-width="1.619303"/>
    <g fill="#fff" stroke="#fff" stroke-width=".329678" transform="matrix(.98832419 0 0 .97642233 -3.306156 20.242513)">
      <path d="m-283.85831 855.44419-.38448.38922-4.54995 4.60596-.38642.38921.77089.78036.38447-.3892 4.54996-4.60791.38447-.38921z"/>
      <path d="m-288.40824 855.4445-.77091.77837.38642.3892 4.55013 4.6077.38449.38919.76898-.78033-.38449-.3892-4.55013-4.60574z"/>
    </g>
  </g>
</svg>
