<svg height="24" width="24" xmlns="http://www.w3.org/2000/svg">
  <path d="m12 4.99999a7 7 0 0 0 -7 7 7 7 0 0 0 7 7 7 7 0 0 0 7-7 7 7 0 0 0 -7-7zm-3 3.92188h.75c.008-.0001.0156-.00035.0234 0 .19121.008.3824.0964.51562.23437l1.71094 1.71094 1.73438-1.71094c.19921-.17287.335-.22913.51562-.23437h.75v.75c0 .21485-.0258.41298-.1875.5625l-1.71094 1.71093 1.6875 1.6875c.14114.14113.21093.34009.21094.53907v.75h-.75c-.19898-.00001-.39794-.0698-.53906-.21094l-1.7109-1.71094-1.71094 1.71094c-.14112.14114-.34009.21094-.53906.21094h-.75v-.75c0-.19897.0698-.39794.21094-.53907l1.71094-1.6875-1.71094-1.71093c-.15806-.14598-.22737-.35194-.21094-.5625z" fill="#be3841"/>
</svg>
