<svg height="24" width="24" xmlns="http://www.w3.org/2000/svg">
  <path d="m12.00001 5a7 7 0 0 0 -7 7 7 7 0 0 0 7 7 7 7 0 0 0 7-7 7 7 0 0 0 -7-7zm-3 3.921875h.75c.008-.00009.0156-.000345.0234 0 .19121.0084.3824.09643.51562.234375l1.71098 1.710938 1.73438-1.710938c.19921-.172875.335-.229125.51562-.234375h.75v.75c0 .214853-.0258.412987-.1875.5625l-1.71094 1.710937 1.6875 1.6875c.14114.141128.21093.340088.21094.539063v.75h-.75c-.19898-.000008-.39794-.06982-.53906-.210937l-1.71094-1.710938-1.71094 1.710938c-.14112.141142-.34009.210937-.53906.210937h-.75v-.75c0-.198967.0698-.397935.21094-.539063l1.71094-1.6875-1.71094-1.710937c-.15806-.145972-.22737-.351937-.21094-.5625z" fill="#cc575d"/>
</svg>
