<svg xmlns="http://www.w3.org/2000/svg" width="16" height="16" viewBox="0 0 4.233 4.233"><g style="display:inline"><g transform="matrix(.26458 0 0 .26458 -342.37 -65.352)" style="display:inline;opacity:1"><circle style="display:inline;opacity:.95;fill:#dc9a00;fill-opacity:1;stroke:none;stroke-width:0;stroke-linecap:butt;stroke-linejoin:miter;stroke-miterlimit:4;stroke-dasharray:none;stroke-dashoffset:0;stroke-opacity:1" cx="1302" cy="255" r="7"/></g><path d="M91.626-150.638h.774a.778.778 0 0 1 .515.235l1.711 1.71 1.735-1.71c.199-.173.335-.23.515-.235h.75v.75c0 .215-.026.413-.187.563l-1.711 1.71 1.687 1.688a.76.76 0 0 1 .211.54v.75h-.75a.761.761 0 0 1-.539-.212l-1.71-1.71-1.712 1.71a.761.761 0 0 1-.539.211h-.75v-.75c0-.199.07-.398.211-.539l1.711-1.687-1.71-1.711a.681.681 0 0 1-.212-.563v-.75z" style="color:#bebebe;font-style:normal;font-variant:normal;font-weight:400;font-stretch:normal;font-size:medium;line-height:normal;font-family:'Andale Mono';-inkscape-font-specification:'Andale Mono';text-indent:0;text-align:start;text-decoration:none;text-decoration-line:none;letter-spacing:normal;word-spacing:normal;text-transform:none;writing-mode:lr-tb;direction:ltr;text-anchor:start;display:inline;overflow:visible;visibility:visible;opacity:.65;fill:#000;fill-opacity:1;fill-rule:nonzero;stroke:none;stroke-width:1.78125;marker:none;enable-background:new" transform="matrix(.26458 0 0 .26458 -22.92 41.18)"/><path style="display:inline;opacity:1;fill:none;fill-opacity:1;stroke:none;stroke-width:1;stroke-linecap:butt;stroke-linejoin:miter;stroke-miterlimit:4;stroke-dasharray:none;stroke-dashoffset:0;stroke-opacity:0" d="M86.625-155.638h16v16h-16z" transform="matrix(.26458 0 0 .26458 -22.92 41.18)"/></g></svg>