<svg height="24" width="24" xmlns="http://www.w3.org/2000/svg" xmlns:xlink="http://www.w3.org/1999/xlink">
  <linearGradient id="a" gradientUnits="userSpaceOnUse" x1="12" x2="12" y1="19" y2="12">
    <stop offset="0" stop-color="#fff"/>
    <stop offset="1" stop-color="#fff" stop-opacity="0"/>
  </linearGradient>
  <path d="m12 5c-3.8659932 0-7 3.1340068-7 7 0 3.865993 3.1340068 7 7 7 3.865993 0 7-3.134007 7-7 0-3.8659932-3.134007-7-7-7zm0 1c3.313708 0 6 2.6862915 6 6 0 3.313708-2.686292 6-6 6-3.3137085 0-6-2.686292-6-6 0-3.3137085 2.6862915-6 6-6z" fill="url(#a)" opacity=".25"/>
  <circle cx="12" cy="11.999983" fill-opacity=".666667" r="6"/>
  <path d="m12 6c-3.313708 0-6 2.6863-6 6s2.686292 6 6 6c3.31371 0 6-2.6863 6-6s-2.68629-6-6-6zm0 1c2.76142 0 5 2.2386 5 5s-2.23858 5-5 5-5-2.2386-5-5 2.23858-5 5-5z" fill-opacity=".235294"/>
  <path d="m45 764h1c.01037-.00012.02079-.00046.03125 0 .254951.0112.50987.12858.6875.3125l2.28125 2.28125 2.3125-2.28125c.265625-.2305.446672-.3055.6875-.3125h1v1c0 .28647-.03434.55065-.25.75l-2.28125 2.28125 2.25 2.25c.188188.18817.281242.45345.28125.71875v1h-1c-.265301-.00001-.530586-.0931-.71875-.28125l-2.28125-2.28125-2.28125 2.28125c-.188164.18819-.45346.28125-.71875.28125h-1v-1c-.000003-.26529.09306-.53058.28125-.71875l2.28125-2.25-2.28125-2.28125c-.210742-.19463-.30316-.46925-.28125-.75z" fill="#fff" opacity=".7" transform="matrix(.75 0 0 .75 -24.74882 -563.999822)"/>
</svg>
