<svg height="24" width="24" xmlns="http://www.w3.org/2000/svg" xmlns:xlink="http://www.w3.org/1999/xlink">
  <linearGradient id="a" gradientUnits="userSpaceOnUse" x1="12" x2="12" y1="19" y2="12">
    <stop offset="0" stop-color="#fff"/>
    <stop offset="1" stop-color="#fff" stop-opacity="0"/>
  </linearGradient>
  <path d="m12 5c-3.8659932 0-7 3.1340068-7 7 0 3.865993 3.1340068 7 7 7 3.865993 0 7-3.134007 7-7 0-3.8659932-3.134007-7-7-7zm0 1c3.313708 0 6 2.6862915 6 6 0 3.313708-2.686292 6-6 6-3.3137085 0-6-2.686292-6-6 0-3.3137085 2.6862915-6 6-6z" fill="url(#a)" opacity=".25"/>
  <circle cx="12" cy="11.999983" fill-opacity=".588235" r="6"/>
  <path d="m12 6c-3.313708 0-6 2.6863-6 6s2.686292 6 6 6c3.31371 0 6-2.6863 6-6s-2.68629-6-6-6zm0 1c2.76142 0 5 2.2386 5 5s-2.23858 5-5 5-5-2.2386-5-5 2.23858-5 5-5z" fill-opacity=".235294"/>
  <path d="m9.00122 10.99991v2h6v-2z" fill="#fff"/>
</svg>
