<svg enable-background="new" height="24" width="24" xmlns="http://www.w3.org/2000/svg" xmlns:xlink="http://www.w3.org/1999/xlink">
  <linearGradient id="a" gradientUnits="userSpaceOnUse" x1="8" x2="8" y1="14" y2="7">
    <stop offset="0" stop-color="#fff"/>
    <stop offset="1" stop-color="#fff" stop-opacity="0"/>
  </linearGradient>
  <g enable-background="new" transform="translate(4 -1032.3622)">
    <path d="m8 0c-3.8659932 0-7 3.1340068-7 7 0 3.865993 3.1340068 7 7 7 3.865993 0 7-3.134007 7-7 0-3.8659932-3.134007-7-7-7zm0 1c3.313708 0 6 2.6862915 6 6 0 3.313708-2.686292 6-6 6-3.3137085 0-6-2.686292-6-6 0-3.3137085 2.6862915-6 6-6z" fill="url(#a)" opacity=".25" transform="translate(0 1037.3622)"/>
    <circle cx="8" cy="1044.3622" fill-opacity=".666667" r="6"/>
    <path d="m8 1038.3622c-3.313708 0-6 2.6863-6 6s2.686292 6 6 6c3.31371 0 6-2.6863 6-6s-2.68629-6-6-6zm0 1c2.76142 0 5 2.2386 5 5s-2.23858 5-5 5-5-2.2386-5-5 2.23858-5 5-5z" fill-opacity=".235294"/>
  </g>
  <path d="m86.0002 974v2h6v-2z" fill="#fff" opacity=".7" transform="translate(-77.0002 -963)"/>
</svg>
