<svg height="24" width="24" xmlns="http://www.w3.org/2000/svg">
  <circle cx="12" cy="12" fill="#d52735" r="7"/>
  <circle cx="12" cy="12" fill="#f25056" r="6.5"/>
  <path d="m8.9238281 8.2988281c-.1580537.000845-.3174631.0628494-.4394531.1855469-.24398.245395-.2444494.6325238-.0058594.8710938l2.6425784 2.6445312-2.6425784 2.644531c-.23859.23857-.2381206.625699.0058594.871094s.6343969.246407.8730469.007813l2.6425781-2.642579 2.642578 2.642579c.23859.23864.629042.237527.873047-.007813.244005-.24536.244464-.632524.005859-.871094l-2.642578-2.644531 2.642578-2.6445312c.238605-.2385701.238146-.6257338-.005859-.8710938s-.634457-.2464525-.873047-.0078125l-2.642578 2.6425785-2.6425781-2.6425785c-.119325-.1193175-.27554-.1785794-.4335938-.1777344z" fill="#9f1d2b"/>
</svg>
