<?xml version="1.0" encoding="UTF-8" standalone="no"?>
<svg
   height="16"
   width="16"
   version="1.1"
   id="svg1"
   sodipodi:docname="close.svg"
   inkscape:version="1.3 (0e150ed6c4, 2023-07-21)"
   xmlns:inkscape="http://www.inkscape.org/namespaces/inkscape"
   xmlns:sodipodi="http://sodipodi.sourceforge.net/DTD/sodipodi-0.dtd"
   xmlns="http://www.w3.org/2000/svg"
   xmlns:svg="http://www.w3.org/2000/svg">
  <defs
     id="defs1" />
  <sodipodi:namedview
     id="namedview1"
     pagecolor="#ffffff"
     bordercolor="#000000"
     borderopacity="0.25"
     inkscape:showpageshadow="2"
     inkscape:pageopacity="0.0"
     inkscape:pagecheckerboard="0"
     inkscape:deskcolor="#d1d1d1"
     inkscape:zoom="50.1875"
     inkscape:cx="8"
     inkscape:cy="8"
     inkscape:window-width="1920"
     inkscape:window-height="1009"
     inkscape:window-x="0"
     inkscape:window-y="0"
     inkscape:window-maximized="1"
     inkscape:current-layer="svg1" />
  <rect
     height="16"
     opacity="0"
     ry=".000017"
     stroke-width=".47432"
     width="16"
     y=".000001"
     id="rect1" />
  <path
     d="m8 15c3.8659 0 6.9999-3.134 6.9999-7s-3.134-7-6.9999-7c-3.866 0-7.0001 3.134-7.0001 7s3.134 7 7.0001 7"
     fill="#e9524a"
     fill-rule="evenodd"
     id="path1" />
  <path
     style="fill:#ed8796;stroke:#ff5555;stroke-width:0;fill-opacity:1"
     d="M 7.3424658,14.961026 C 7.2383562,14.951474 7.0215143,14.921714 6.8605948,14.894893 3.977066,14.414275 1.6967044,12.195235 1.1368148,9.3250311 1.0483752,8.8716569 1.0185983,8.5379017 1.0185983,8 c 0,-0.5379017 0.029777,-0.8716569 0.1182165,-1.3250311 0.5994749,-3.073133 3.1659749,-5.3775283 6.2817334,-5.6402093 0.3565173,-0.030057 1.1599586,-0.013318 1.4780894,0.030795 1.1453424,0.1588158 2.1888644,0.5656674 3.1164574,1.2150536 1.511823,1.0583917 2.55888,2.7052936 2.869826,4.5139124 0.02732,0.1589042 0.06077,0.3875467 0.07433,0.5080947 0.03179,0.2825666 0.03179,1.112203 0,1.3947696 -0.160429,1.4259231 -0.691708,2.6903731 -1.584856,3.7719761 -0.211988,0.256718 -0.669088,0.710938 -0.931342,0.925475 -1.096468,0.896966 -2.429475,1.44377 -3.8233713,1.568358 -0.26854,0.024 -1.0035991,0.02275 -1.2752179,-0.0022 z"
     id="path2" />
  <path
     style="fill:#ed8796;fill-opacity:1;stroke:#ff5555;stroke-width:0"
     d="M 7.2428394,14.941455 C 6.1176321,14.789317 5.2187409,14.477762 4.3363995,13.934087 2.7132333,12.933934 1.5544357,11.282361 1.1667215,9.4165123 1.0548624,8.8781978 1.0382797,8.6953158 1.0382797,8 c 0,-0.6948674 0.01662,-0.8784408 0.1280789,-1.4146949 0.3230794,-1.554405 1.185625,-2.974886 2.4188682,-3.9835067 1.0391309,-0.8498642 2.2974484,-1.382611 3.6276025,-1.5358557 0.3051443,-0.035155 1.1359568,-0.039873 1.4945181,-0.00849 0.7885277,0.069022 1.6716276,0.3303614 2.4508096,0.7252785 0.705513,0.3575789 1.301997,0.7981899 1.854664,1.3700032 0.718165,0.7430456 1.28968,1.6847361 1.611619,2.6554824 0.166614,0.5023914 0.289607,1.1077969 0.331935,1.633873 0.028,0.3479493 0.01026,1.1579088 -0.03163,1.4445828 -0.249907,1.7102164 -0.990318,3.1292194 -2.224183,4.2626684 -1.057086,0.971057 -2.394399,1.589408 -3.8395568,1.775348 -0.248483,0.03197 -0.4137261,0.03874 -0.8966376,0.03674 -0.3256082,-0.0014 -0.6502964,-0.01034 -0.7215292,-0.01997 z"
     id="path3" />
  <path
     style="fill:#ed8796;fill-opacity:1;stroke:#ff5555;stroke-width:0"
     d="M 7.3026152,14.949882 C 7.0666999,14.924085 6.5535938,14.829213 6.2972593,14.763993 5.7886225,14.634581 5.3949262,14.48949 4.9215442,14.256993 2.8039886,13.21698 1.3565836,11.172839 1.0625219,8.8069738 1.0279018,8.5284392 1.0277361,7.4735898 1.0622683,7.1930262 1.1267337,6.6692639 1.2792944,6.0472211 1.4609499,5.5674634 2.3895328,3.1150464 4.5460525,1.408927 7.1389938,1.0753086 c 0.35013,-0.045049 1.1831597,-0.05445 1.5783163,-0.017812 0.9027879,0.083705 1.9285619,0.4160887 2.7603099,0.8944299 0.543198,0.3123947 0.975953,0.6464753 1.444985,1.1155066 0.383682,0.383683 0.600997,0.648162 0.884961,1.0770256 0.599597,0.9055565 0.941248,1.8005152 1.106743,2.8991283 0.05338,0.3543424 0.0742,1.1127619 0.04172,1.5196833 -0.110726,1.3871911 -0.644142,2.7141547 -1.5437,3.8402167 -0.208159,0.260572 -0.761685,0.810997 -1.038727,1.032909 -1.011604,0.810298 -2.218937,1.321848 -3.5125928,1.488295 -0.2500545,0.03217 -0.410672,0.03862 -0.8966376,0.03601 -0.3256082,-0.0018 -0.6233972,-0.0066 -0.6617534,-0.01081 z"
     id="path4" />
</svg>
