<?xml version="1.0" encoding="UTF-8" standalone="no"?>
<svg
   height="16"
   width="16"
   version="1.1"
   id="svg2"
   sodipodi:docname="close-active.svg"
   inkscape:version="1.3 (0e150ed6c4, 2023-07-21)"
   xmlns:inkscape="http://www.inkscape.org/namespaces/inkscape"
   xmlns:sodipodi="http://sodipodi.sourceforge.net/DTD/sodipodi-0.dtd"
   xmlns="http://www.w3.org/2000/svg"
   xmlns:svg="http://www.w3.org/2000/svg">
  <defs
     id="defs2" />
  <sodipodi:namedview
     id="namedview2"
     pagecolor="#ffffff"
     bordercolor="#000000"
     borderopacity="0.25"
     inkscape:showpageshadow="2"
     inkscape:pageopacity="0.0"
     inkscape:pagecheckerboard="0"
     inkscape:deskcolor="#d1d1d1"
     inkscape:zoom="50.1875"
     inkscape:cx="8"
     inkscape:cy="8"
     inkscape:window-width="1920"
     inkscape:window-height="1009"
     inkscape:window-x="0"
     inkscape:window-y="0"
     inkscape:window-maximized="1"
     inkscape:current-layer="svg2" />
  <g
     transform="matrix(3.7795 0 0 3.7795 -322 -580.52)"
     id="g2">
    <path
       d="m12.003 1045.9c3.0068 0 5.4444-2.4375 5.4444-5.4444s-2.4376-5.4445-5.4444-5.4445c-3.0069 0-5.4445 2.4376-5.4445 5.4445s2.4376 5.4444 5.4445 5.4444"
       fill="#cb4e43"
       fill-rule="evenodd"
       stroke-width=".77778"
       transform="matrix(.34018 0 0 .34018 83.2301 -198.212012)"
       id="path1" />
    <path
       d="m86.564 154.96c-.10365.10364-.10365.27051 0 .37417l.37417.37418-.37417.37417c-.10365.10366-.10365.27054 0 .37417.10364.10367.27053.10367.37417 0l.37418-.37417.37418.37417c.10364.10367.27053.10367.37417 0 .10365-.10363.10365-.27051 0-.37417l-.37417-.37417.37417-.37418c.10365-.10366.10365-.27053 0-.37417-.10364-.10367-.27053-.10367-.37417 0l-.37418.37417-.37418-.37417c-.10364-.10367-.27053-.10367-.37417 0z"
       opacity=".5"
       id="path2" />
  </g>
  <path
     style="fill:#ed8796;stroke:#ff5555;stroke-width:0"
     d="M 7.4221669,15.03126 C 7.0291495,14.985087 6.8191482,14.954216 6.6101406,14.91189 4.1802407,14.419806 2.1810349,12.657191 1.3807638,10.30137 0.68832689,8.2629886 0.97955039,6.0124314 2.1679031,4.2184062 2.8664681,3.1638005 3.7908073,2.3495693 4.9215442,1.7927801 5.6252095,1.4462865 6.3221105,1.2351473 7.1232877,1.1257209 7.4489909,1.0812359 8.1833343,1.0650659 8.5479452,1.0943499 10.852497,1.2794453 12.904781,2.5798172 14.065311,4.590273 c 0.480619,0.8326065 0.774292,1.7452051 0.892062,2.7721177 0.03752,0.3272018 0.03166,1.1337274 -0.01079,1.4844334 -0.105418,0.8708963 -0.324544,1.5998169 -0.709801,2.3611459 -0.633163,1.251232 -1.589683,2.251857 -2.819598,2.949608 -0.754957,0.428299 -1.5827663,0.704623 -2.5105858,0.838037 -0.209268,0.03009 -1.3072806,0.05646 -1.4844333,0.03564 z M 6.1967621,11.054787 c 0.065754,-0.02156 0.1643836,-0.06719 0.2191781,-0.101392 0.054795,-0.0342 0.4337297,-0.394026 0.842078,-0.799611 L 8.00047,9.4163563 8.7524142,10.165012 c 0.4560849,0.45409 0.7894642,0.770224 0.8473029,0.803473 0.2444929,0.140549 0.5766859,0.177121 0.8289069,0.09126 0.502562,-0.171085 0.789486,-0.683578 0.668964,-1.1948759 -0.06307,-0.2675574 -0.09786,-0.3107245 -0.9089,-1.1275835 L 9.4369722,7.9801732 10.188669,7.2229633 C 10.999651,6.4060338 11.034543,6.3627437 11.097588,6.0952813 11.181159,5.7407424 11.076758,5.386351 10.815991,5.1393981 10.674589,5.005487 10.596596,4.9568257 10.440847,4.9053396 10.17532,4.8175643 9.9160978,4.8369287 9.6537983,4.9641337 9.5396304,5.0195005 9.433977,5.116811 8.7621521,5.7853693 L 8.0000203,6.5437956 7.2577935,5.8061667 C 6.8395553,5.3905194 6.4698883,5.0398876 6.4109218,5.0029027 6.016954,4.755799 5.4927454,4.8169943 5.1624428,5.1486482 4.9700302,5.3418481 4.872204,5.5809488 4.872204,5.8580324 c 0,0.1727615 0.029936,0.300047 0.1101237,0.4682441 0.048751,0.1022557 0.1673363,0.230599 0.8196776,0.8871238 L 6.5646864,7.9809726 5.8369217,8.7077964 C 5.4366512,9.1075495 5.0772491,9.4823321 5.0382506,9.5406464 4.9311018,9.7008658 4.8864165,9.8448223 4.8762965,10.062393 c -0.00775,0.166544 -0.00238,0.208563 0.044413,0.347967 0.1280086,0.381331 0.4376943,0.6381 0.8376965,0.694556 0.1037047,0.01464 0.3143047,-0.0094 0.4383561,-0.05013 z"
     id="path3" />
  <path
     style="fill:#cf7684;stroke:#ff5555;stroke-width:0;fill-opacity:1"
     d="M 7.1033624,14.983986 C 6.3206462,14.872054 5.663723,14.676132 4.9964075,14.355603 2.7532094,13.278138 1.2532778,11.104904 1.0446041,8.6298794 1.0082077,8.1981908 1.0307224,7.4892836 1.0943516,7.0635118 1.4670798,4.5694191 3.1131768,2.4971053 5.4595268,1.5680809 5.9406619,1.3775781 6.4312942,1.2453759 6.9970953,1.153779 7.3671807,1.0938662 8.3467806,1.077511 8.7571606,1.1243933 11.07632,1.3893366 13.057954,2.7403279 14.180687,4.8219178 c 0.401695,0.7447578 0.699721,1.7681114 0.775103,2.6615291 0.02912,0.345119 0.01232,1.1219821 -0.03142,1.4530413 -0.107267,0.8119087 -0.316387,1.4940768 -0.681056,2.2216688 -0.37732,0.752833 -0.808874,1.345876 -1.384702,1.902864 -1.08451,1.049027 -2.383588,1.687845 -3.8922399,1.914 -0.1359297,0.02038 -0.4208841,0.03266 -0.8966376,0.03865 -0.6137208,0.0077 -0.7296552,0.0042 -0.9663761,-0.02969 z M 6.089604,11.089647 c 0.2891015,-0.06128 0.3856221,-0.14139 1.4853597,-1.2328285 l 0.4217879,-0.418605 0.7139531,0.6987225 c 0.392674,0.384298 0.7561926,0.734644 0.8078188,0.778548 0.1108129,0.09424 0.2637868,0.155601 0.4664235,0.187104 0.503603,0.07829 1.002633,-0.267715 1.123222,-0.778802 0.03575,-0.151538 0.01651,-0.4402188 -0.03908,-0.5861748 C 11.004981,9.5692684 10.900707,9.4497445 10.144165,8.6774163 L 9.4609927,7.9799882 10.126648,7.302572 c 0.741114,-0.7542086 0.87817,-0.9112532 0.942353,-1.0797862 0.05398,-0.1417407 0.07432,-0.429515 0.04126,-0.5836802 C 11.053006,5.3721463 10.822179,5.0724758 10.583947,4.9558253 10.332974,4.8329357 10.04074,4.8134183 9.7801112,4.9021392 9.5672032,4.9746156 9.5345152,5.0033618 8.5130911,6.0163754 L 8.0000301,6.5252119 7.5766029,6.1050084 C 6.7779459,5.3124324 6.4482363,5.0053244 6.3393933,4.9526103 5.9350763,4.7567942 5.483727,4.8292473 5.1683092,5.1405998 4.9407231,5.3652525 4.8590926,5.586664 4.8758155,5.9339493 c 0.00848,0.1760651 0.017808,0.2164967 0.08035,0.3481917 0.064885,0.1366296 0.121214,0.2008741 0.6786596,0.7740254 0.334346,0.3437661 0.6754537,0.6914945 0.758017,0.77273 l 0.1501155,0.1477008 -0.725447,0.736042 C 5.4185148,9.1174625 5.061491,9.4948328 5.0241245,9.5512399 4.9202823,9.707996 4.8863028,9.826251 4.8763072,10.065668 c -0.00754,0.180594 -0.00237,0.232183 0.034354,0.342525 0.1688805,0.507486 0.6601112,0.791427 1.1789428,0.681454 z"
     id="path4" />
</svg>
