<?xml version="1.0" encoding="UTF-8" standalone="no"?>
<svg
   height="16"
   width="16"
   version="1.1"
   id="svg2"
   sodipodi:docname="maximize-active.svg"
   inkscape:version="1.3 (0e150ed6c4, 2023-07-21)"
   xmlns:inkscape="http://www.inkscape.org/namespaces/inkscape"
   xmlns:sodipodi="http://sodipodi.sourceforge.net/DTD/sodipodi-0.dtd"
   xmlns="http://www.w3.org/2000/svg"
   xmlns:svg="http://www.w3.org/2000/svg">
  <defs
     id="defs2" />
  <sodipodi:namedview
     id="namedview2"
     pagecolor="#ffffff"
     bordercolor="#000000"
     borderopacity="0.25"
     inkscape:showpageshadow="2"
     inkscape:pageopacity="0.0"
     inkscape:pagecheckerboard="0"
     inkscape:deskcolor="#d1d1d1"
     inkscape:zoom="50.1875"
     inkscape:cx="8"
     inkscape:cy="8"
     inkscape:window-width="1920"
     inkscape:window-height="1009"
     inkscape:window-x="0"
     inkscape:window-y="0"
     inkscape:window-maximized="1"
     inkscape:current-layer="svg2" />
  <g
     transform="matrix(3.7795 0 0 3.7795 -296 -586.52)"
     id="g2">
    <path
       d="m92.34 127.93c1.0229 0 1.8521-.82923 1.8521-1.8521 0-1.0229-.82921-1.8521-1.8521-1.8521-1.0229 0-1.8521.82923-1.8521 1.8521 0 1.0229.82921 1.8521 1.8521 1.8521"
       fill="#20a932"
       fill-rule="evenodd"
       stroke-width=".77781"
       transform="translate(-11.906 31.221)"
       id="path1" />
    <path
       d="m80.014 156.51 1.2134 1.2134v-.94877c0-.10994-.15465-.26458-.26459-.26458zm-.37413.37414v.94877c0 .10994.15464.26459.26458.26459h.94878z"
       opacity=".5"
       id="path2" />
  </g>
  <path
     style="fill:#97c788;stroke:#ff5555;stroke-width:0;fill-opacity:1"
     d="M 7.4719801,14.961636 C 4.3732334,14.727538 1.7734102,12.436003 1.1561825,9.3947696 1.0500474,8.8718159 1.0186824,8.5513837 1.0186824,7.9900374 c 0,-0.5455038 0.031251,-0.8785664 0.1271319,-1.3549191 C 1.3677935,5.5322855 1.803828,4.5849887 2.512364,3.6662516 2.7403443,3.3706365 3.3806906,2.7303038 3.6762142,2.5024263 4.1206518,2.1597217 4.5104829,1.9181545 4.9973382,1.6837639 6.706285,0.86101215 8.6940726,0.7800957 10.49066,1.4601484 c 0.497251,0.1882219 1.118776,0.5219899 1.562129,0.8388868 0.417948,0.2987375 0.95332,0.7894741 1.263329,1.1580009 0.787367,0.9359918 1.3033,1.9997611 1.536552,3.1681196 0.09699,0.4858305 0.128759,0.8189449 0.129211,1.354919 4.23e-4,0.5023305 -0.02002,0.7538122 -0.09898,1.2178134 -0.201981,1.1868569 -0.738022,2.3380969 -1.525064,3.2753369 -1.45493,1.732587 -3.6433902,2.65782 -5.8858549,2.488411 z M 7.3025829,8.7172545 5.0012453,6.415829 4.9958127,6.8492595 c -0.00299,0.2383866 -0.00299,1.0790095 0,1.8680506 l 0.00543,1.4346199 0.07283,0.14944 c 0.1582635,0.32474 0.45281,0.590488 0.7640317,0.689331 0.061929,0.01967 0.4906817,0.02561 1.9227573,0.02665 l 1.8430559,0.0013 z M 11.004187,7.3026152 10.998755,5.867995 10.93409,5.731459 C 10.804414,5.457658 10.552305,5.2055486 10.278504,5.0758731 l -0.136536,-0.064665 -1.8729767,-0.00526 -1.8729764,-0.00526 2.3013699,2.3017032 2.3013702,2.3017032 0.0054,-0.4334304 c 0.003,-0.2383866 0.003,-1.0790095 0,-1.8680506 z"
     id="path3" />
</svg>
