<?xml version="1.0" encoding="UTF-8" standalone="no"?>
<svg
   height="16"
   width="16"
   version="1.1"
   id="svg1"
   sodipodi:docname="maximize.svg"
   inkscape:version="1.3 (0e150ed6c4, 2023-07-21)"
   xmlns:inkscape="http://www.inkscape.org/namespaces/inkscape"
   xmlns:sodipodi="http://sodipodi.sourceforge.net/DTD/sodipodi-0.dtd"
   xmlns="http://www.w3.org/2000/svg"
   xmlns:svg="http://www.w3.org/2000/svg">
  <defs
     id="defs1" />
  <sodipodi:namedview
     id="namedview1"
     pagecolor="#ffffff"
     bordercolor="#000000"
     borderopacity="0.25"
     inkscape:showpageshadow="2"
     inkscape:pageopacity="0.0"
     inkscape:pagecheckerboard="0"
     inkscape:deskcolor="#d1d1d1"
     inkscape:zoom="50.1875"
     inkscape:cx="8"
     inkscape:cy="8"
     inkscape:window-width="1920"
     inkscape:window-height="1009"
     inkscape:window-x="0"
     inkscape:window-y="0"
     inkscape:window-maximized="1"
     inkscape:current-layer="svg1" />
  <rect
     height="16"
     opacity="0"
     ry=".000017"
     stroke-width=".47432"
     width="16"
     y=".000001"
     id="rect1" />
  <path
     d="m8 15c3.8659 0 6.9999-3.134 6.9999-7s-3.134-7-6.9999-7c-3.866 0-7.0001 3.134-7.0001 7s3.134 7 7.0001 7"
     fill="#59c837"
     fill-rule="evenodd"
     id="path1" />
  <path
     style="fill:#a6da95;stroke:#ff5555;stroke-width:0;fill-opacity:1"
     d="M 7.3424658,14.961026 C 7.2383562,14.951474 7.0215143,14.921714 6.8605948,14.894893 3.977066,14.414275 1.6967044,12.195235 1.1368148,9.3250311 1.0483752,8.8716569 1.0185983,8.5379017 1.0185983,8 c 0,-0.5379017 0.029777,-0.8716569 0.1182165,-1.3250311 0.5994749,-3.073133 3.1659749,-5.3775283 6.2817334,-5.6402093 0.3565173,-0.030057 1.1599586,-0.013318 1.4780894,0.030795 1.1453424,0.1588158 2.1888644,0.5656674 3.1164574,1.2150536 1.511823,1.0583917 2.55888,2.7052936 2.869826,4.5139124 0.02732,0.1589042 0.06077,0.3875467 0.07433,0.5080947 0.03179,0.2825666 0.03179,1.112203 0,1.3947696 -0.160429,1.4259231 -0.691708,2.6903731 -1.584856,3.7719761 -0.211988,0.256718 -0.669088,0.710938 -0.931342,0.925475 -1.096468,0.896966 -2.429475,1.44377 -3.8233713,1.568358 -0.26854,0.024 -1.0035991,0.02275 -1.2752179,-0.0022 z"
     id="path2" />
</svg>
