<?xml version="1.0" encoding="UTF-8" standalone="no"?>
<svg
   height="16"
   width="16"
   version="1.1"
   id="svg2"
   sodipodi:docname="maximize-hover.svg"
   inkscape:version="1.3 (0e150ed6c4, 2023-07-21)"
   xmlns:inkscape="http://www.inkscape.org/namespaces/inkscape"
   xmlns:sodipodi="http://sodipodi.sourceforge.net/DTD/sodipodi-0.dtd"
   xmlns="http://www.w3.org/2000/svg"
   xmlns:svg="http://www.w3.org/2000/svg">
  <defs
     id="defs2" />
  <sodipodi:namedview
     id="namedview2"
     pagecolor="#ffffff"
     bordercolor="#000000"
     borderopacity="0.25"
     inkscape:showpageshadow="2"
     inkscape:pageopacity="0.0"
     inkscape:pagecheckerboard="0"
     inkscape:deskcolor="#d1d1d1"
     inkscape:zoom="50.1875"
     inkscape:cx="8"
     inkscape:cy="8"
     inkscape:window-width="1920"
     inkscape:window-height="1009"
     inkscape:window-x="0"
     inkscape:window-y="0"
     inkscape:window-maximized="1"
     inkscape:current-layer="svg2" />
  <path
     d="m8.0019 14.999c3.8661 0 7-3.1339 7-7s-3.134-7-7-7c-3.8661 0-7 3.134-7 7 0 3.8661 3.134 7 7 7"
     fill="#59c837"
     fill-rule="evenodd"
     stroke-width="2.9396"
     id="path1" />
  <path
     d="m6.4107 4.9791 4.586 4.586v-3.5859c0-.41552-.5845-.99998-1-.99998zm-1.414 1.4141v3.5859c0 .41552.58446 1 .99998 1h3.5859z"
     opacity=".5"
     stroke-width="3.7795"
     id="path2" />
  <path
     style="fill:#a6da95;stroke:#ff5555;stroke-width:0"
     d="M 7.4819427,14.970598 C 6.8155489,14.905285 6.3661639,14.8161 5.838563,14.644453 3.7574247,13.967385 2.082753,12.31409 1.3863793,10.2491 1.1268882,9.4796192 1.0188097,8.8183038 1.0188097,8 c 0,-0.4870765 0.021145,-0.744578 0.098435,-1.1987264 C 1.5141287,4.4692354 3.1235993,2.4571047 5.3245033,1.5414366 6.5452049,1.0335737 7.9510673,0.88589298 9.2720956,1.1267563 10.879528,1.4198398 12.355436,2.29215 13.404101,3.5689074 c 1.607039,1.956583 2.026431,4.6172694 1.102036,6.9914916 -0.177691,0.456383 -0.50401,1.058575 -0.793093,1.46358 -0.352081,0.493265 -0.842394,1.022019 -1.271989,1.371712 -1.116959,0.909213 -2.414095,1.437098 -3.8532592,1.568131 -0.2012543,0.01832 -0.9417385,0.02286 -1.1058531,0.0068 z M 7.3125778,8.6874222 C 6.0523395,7.4271482 5.0143175,6.3960149 5.005862,6.3960149 c -0.00846,0 -0.012953,0.841069 -0.01,1.8690421 l 0.00538,1.869042 0.074913,0.151562 c 0.1466232,0.296645 0.4704307,0.582014 0.7719117,0.680281 0.016438,0.0054 0.8682296,0.01045 1.8928692,0.01131 l 1.8629812,0.0016 z M 11.008717,7.7430703 c 0,-1.7602656 -0.0013,-1.8253402 -0.03956,-1.9491344 -0.1064,-0.3444843 -0.531233,-0.7388672 -0.873005,-0.8104316 -0.1210486,-0.025347 -3.6901774,-0.032309 -3.6901774,-0.0072 0,0.01954 4.5682234,4.587828 4.5877634,4.587828 0.0082,0 0.01498,-0.819479 0.01498,-1.8210642 z"
     id="path3" />
</svg>
