<?xml version="1.0" encoding="UTF-8" standalone="no"?>
<svg
   height="16"
   width="16"
   version="1.1"
   id="svg1"
   sodipodi:docname="minimize.svg"
   inkscape:version="1.3 (0e150ed6c4, 2023-07-21)"
   xmlns:inkscape="http://www.inkscape.org/namespaces/inkscape"
   xmlns:sodipodi="http://sodipodi.sourceforge.net/DTD/sodipodi-0.dtd"
   xmlns="http://www.w3.org/2000/svg"
   xmlns:svg="http://www.w3.org/2000/svg">
  <defs
     id="defs1" />
  <sodipodi:namedview
     id="namedview1"
     pagecolor="#ffffff"
     bordercolor="#000000"
     borderopacity="0.25"
     inkscape:showpageshadow="2"
     inkscape:pageopacity="0.0"
     inkscape:pagecheckerboard="0"
     inkscape:deskcolor="#d1d1d1"
     inkscape:zoom="50.1875"
     inkscape:cx="8"
     inkscape:cy="8"
     inkscape:window-width="1920"
     inkscape:window-height="1009"
     inkscape:window-x="0"
     inkscape:window-y="0"
     inkscape:window-maximized="1"
     inkscape:current-layer="svg1" />
  <rect
     height="16"
     opacity="0"
     ry=".000017"
     stroke-width=".47432"
     width="16"
     y=".000001"
     id="rect1" />
  <path
     d="m8 15c3.8659 0 6.9999-3.134 6.9999-7s-3.134-7-6.9999-7c-3.866 0-7.0001 3.134-7.0001 7s3.134 7 7.0001 7"
     fill="#f1ae1b"
     fill-rule="evenodd"
     id="path1" />
  <path
     style="fill:#eed49f;stroke:#ff5555;stroke-width:0;fill-opacity:1"
     d="M 7.3424658,14.961026 C 6.5282066,14.886319 5.648206,14.634221 4.9016189,14.261784 2.9231671,13.274828 1.5420332,11.453255 1.1283109,9.2851806 0.976724,8.4908029 0.97673302,7.5088038 1.1283345,6.7148194 1.6037005,4.2251794 3.3683272,2.1922368 5.758406,1.3807338 6.282145,1.2029088 6.8651116,1.0814183 7.4185482,1.0347596 c 0.3565173,-0.030057 1.1599586,-0.013318 1.4780894,0.030795 1.3004994,0.1803303 2.4779184,0.6836721 3.4768084,1.4863206 1.291937,1.038124 2.172373,2.496157 2.489739,4.1230938 0.08732,0.4476481 0.117975,0.7879097 0.118469,1.3150685 6.09e-4,0.6491594 -0.05479,1.1199986 -0.199801,1.6982942 -0.724684,2.8898883 -3.202389,5.0101343 -6.1641693,5.2748623 -0.26854,0.024 -1.0035991,0.02275 -1.2752179,-0.0022 z"
     id="path2" />
</svg>
