<svg enable-background="new" height="14" width="14" xmlns="http://www.w3.org/2000/svg">
  <g transform="translate(-1 -1)">
    <path d="m8.0000614 15c3.8659286 0 6.9999386-3.134 6.9999386-7 0-3.8659999-3.13401-6.9999999-6.9999386-6.9999999-3.8660426 0-7.0000614 3.134-7.0000614 6.9999999 0 3.866 3.1340188 7 7.0000614 7" fill="#de5151" fill-rule="evenodd"/>
    <path d="m8.0000614 14.5c3.5897806 0 6.4999326-2.790778 6.4999326-6.2331484 0-3.4424673-2.910152-6.233053-6.4999326-6.233053-3.5899138 0-6.5000677 2.7905857-6.5000677 6.233053 0 3.4423704 2.9101539 6.2331484 6.5000677 6.2331484" fill="#ef7c53" fill-rule="evenodd"/>
    <path d="m5.2571769 5.2021018c-.3842406.3842046-.3842406 1.0028352 0 1.3871374l1.3871497 1.3871371-1.3871497 1.3871361c-.3842406.3843019-.3842406 1.0029326 0 1.3871366.3842404.384302 1.0029092.384302 1.3871497 0l1.3871505-1.3871366 1.3871505 1.3871366c.3842408.384302 1.0029094.384302 1.3871504 0 .38424-.384204.38424-1.0028347 0-1.3871366l-1.3871504-1.387136 1.3871504-1.3871372c.38424-.3843022.38424-1.0029328 0-1.3871374-.384241-.3843017-1.0029096-.3843017-1.3871504 0l-1.3871505 1.3871374-1.3871505-1.3871374c-.3842405-.3843017-1.0029093-.3843017-1.3871497 0z" opacity=".5"/>
  </g>
</svg>
