<svg enable-background="new" height="14" width="14" xmlns="http://www.w3.org/2000/svg">
  <g transform="scale(.875)">
    <path d="m8.0000702 16c4.4182038 0 7.9999298-3.581714 7.9999298-8 0-4.4182856-3.581726-7.9999998-7.9999298-7.9999998-4.4183344 0-8.0000702 3.5817142-8.0000702 7.9999998 0 4.418286 3.5817358 8 8.0000702 8" fill="#de5151" fill-rule="evenodd"/>
    <path d="m8.0000702 15.428571c4.1026068 0 7.4284938-3.18946 7.4284938-7.1235978 0-3.9342482-3.325887-7.123489-7.4284938-7.123489-4.1027586 0-7.42864878 3.1892408-7.42864878 7.123489 0 3.9341378 3.32589018 7.1235978 7.42864878 7.1235978" fill="#ef7c53" fill-rule="evenodd"/>
    <path d="m4.865345 4.8024021c-.4391321.4390909-.4391321 1.1460973 0 1.5852998l1.585314 1.5852996-1.585314 1.5852983c-.4391321.4392022-.4391321 1.1462082 0 1.5852992.4391319.439202 1.146182.439202 1.585314 0l1.5853148-1.5852992 1.5853149 1.5852992c.4391323.439202 1.1461823.439202 1.5853143 0 .439132-.439091.439132-1.146097 0-1.5852992l-1.5853143-1.5852982 1.5853143-1.5852997c.439132-.4392025.439132-1.1462089 0-1.5852998-.439132-.4392019-1.146182-.4392019-1.5853143 0l-1.5853149 1.5852998-1.5853148-1.5852998c-.439132-.4392019-1.1461821-.4392019-1.585314 0z" opacity=".5"/>
  </g>
</svg>
