<svg enable-background="new" height="14" width="14" xmlns="http://www.w3.org/2000/svg">
  <g transform="scale(.875)">
    <path d="m8.0000702 16c4.4182038 0 7.9999298-3.581714 7.9999298-8 0-4.4182856-3.581726-7.9999998-7.9999298-7.9999998-4.4183344 0-8.0000702 3.5817142-8.0000702 7.9999998 0 4.418286 3.5817358 8 8.0000702 8" fill="#aeaeae" fill-rule="evenodd"/>
    <path d="m8.0000702 15.428571c4.1026068 0 7.4284938-3.143927 7.4284938-7.0219023 0-3.8780832-3.325887-7.0217948-7.4284938-7.0217948-4.1027583 0-7.42864855 3.1437116-7.42864855 7.0217948 0 3.8779753 3.32589025 7.0219023 7.42864855 7.0219023" fill="#c0c0c0" fill-rule="evenodd"/>
    <rect height="2.25" opacity=".5" ry="1.125" width="9" x="3.5" y="6.875"/>
  </g>
</svg>
