<svg height="24" width="24" xmlns="http://www.w3.org/2000/svg">
  <circle cx="12" cy="12" fill="#f55f67" fill-opacity=".95" r="7"/>
  <path d="m8.0015728 8.0001169h1.03125c.254951.0112.50987.12858.6875.3125l2.2812502 2.2812501 2.3125-2.2812501c.265625-.2305.446672-.3055.6875-.3125h1v1c0 .28647-.03434.55065-.25.75l-2.28125 2.2812501 2.25 2.25c.188188.18817.281242.45345.28125.71875v1h-1c-.265301-.00001-.530586-.0931-.71875-.28125l-2.28125-2.28125-2.2812502 2.28125c-.188164.18819-.45346.28125-.71875.28125h-1v-1c-.000003-.26529.09306-.53058.28125-.71875l2.2812502-2.25-2.2812502-2.2812501c-.210742-.19463-.30316-.46925-.28125-.75z" opacity=".25"/>
</svg>
