<svg width="24" height="24" xmlns="http://www.w3.org/2000/svg">
  <circle cx="12" cy="12" fill="#f55f67" fill-opacity=".9" r="7"/>
  <path d="m 8.0015728,8.0001169 h 1.03125 c 0.254951,0.0112 0.50987,0.12858 0.6875,0.3125 l 2.2812502,2.2812501 2.3125,-2.2812501 c 0.265625,-0.2305 0.446672,-0.3055 0.6875,-0.3125 h 1 v 1 c 0,0.28647 -0.03434,0.55065 -0.25,0.75 l -2.28125,2.2812501 2.25,2.25 c 0.188188,0.18817 0.281242,0.45345 0.28125,0.71875 v 1 h -1 c -0.265301,-10e-6 -0.530586,-0.0931 -0.71875,-0.28125 l -2.28125,-2.28125 -2.2812502,2.28125 c -0.188164,0.18819 -0.45346,0.28125 -0.71875,0.28125 h -1 v -1 c -3e-6,-0.26529 0.09306,-0.53058 0.28125,-0.71875 l 2.2812502,-2.25 -2.2812502,-2.2812501 c -0.210742,-0.19463 -0.30316,-0.46925 -0.28125,-0.75 z" fill="#fff"/>
</svg>
