<svg height="24" width="24" xmlns="http://www.w3.org/2000/svg">
  <circle cx="12" cy="12" fill="#f55f67" fill-opacity=".95" r="7"/>
  <path d="m9.0012192 9.0000888h.75c.008-.00009.0156-.00035.0234 0 .19122.008.3823998.0964.5156298.23437l1.71093 1.7109402 1.73438-1.7109402c.19922-.17287.335-.22912.51562-.23437h.75v.75c0 .21485-.0257.4129802-.1875.5625002l-1.71093 1.71093 1.6875 1.6875c.14114.14113.21093.34009.21093.53907v.75h-.75c-.19897-.00001-.39793-.0698-.53906-.21094l-1.71094-1.71094-1.71093 1.71094c-.14113.14114-.3400998.21094-.5390698.21094h-.75v-.75c0-.19897.0698-.39794.21094-.53907l1.7109398-1.6875-1.7109398-1.71093c-.15805-.14598-.22737-.3519402-.21094-.5625002v-.75z" opacity=".25"/>
</svg>
