<svg height="16" width="16" xmlns="http://www.w3.org/2000/svg"><g fill-rule="evenodd" transform="matrix(.01265625 0 0 -.01265625 .92804 14.51988)"><path d="m564.89251-113.74869c349.09263 0 632.09319 283.00099 632.09319 632.09804 0 349.09856-283.00056 632.09915-632.09319 632.09915-349.10297 0-632.104326-283.00059-632.104326-632.09915 0-349.09705 283.001356-632.09804 632.104326-632.09804" fill="#232831"/><path d="m558.77747 1.5676633c283.63699 0 513.57493 229.9429467 513.57493 513.5851867 0 283.64355-229.93794 513.58155-513.57493 513.58155-283.64749 0-513.585581-229.938-513.585581-513.58155 0-283.64224 229.938091-513.5851867 513.585581-513.5851867" fill="#bf616a"/><path d="m333.8058 789.41038c-11.82062 0-23.65919-4.6089-32.62872-13.5784l-.81065-.8107c-17.9404-17.9391-17.9404-47.3184 0-65.2574l198.60964-198.60968-198.60964-198.81229c-17.93514-17.93385-17.93514-47.11575 0-65.05478l.81065-1.01333c17.93381-17.93903 47.31838-17.93903 65.25744 0l198.60965 198.60962 198.60965-198.60965c17.93512-17.93902 47.31837-17.93902 65.25745 0l.81067 1.01334c17.93382 17.93383 17.93382 47.12093 0 65.05477l-198.60967 198.81232 198.60965 198.60968c17.93382 17.939 17.93908 47.3236 0 65.2574l-.81067.8107c-17.94433 17.9338-47.32233 17.9338-65.25746 0l-198.60962-198.60968-198.60965 198.60968c-8.96954 8.9695-20.80811 13.5784-32.62872 13.5784z" fill="#231d2b"/></g></svg>