<svg height="16" width="16" xmlns="http://www.w3.org/2000/svg"><g fill-rule="evenodd" transform="matrix(.01265625 0 0 -.01265625 .92804 14.51988)"><path d="m564.89251-113.74869c349.09263 0 632.09319 283.00099 632.09319 632.09804 0 349.09856-283.00056 632.09915-632.09319 632.09915-349.10297 0-632.104326-283.00059-632.104326-632.09915 0-349.09705 283.001356-632.09804 632.104326-632.09804" fill="#232831"/><path d="m558.77747 1.5676633c283.63699 0 513.57493 229.9429467 513.57493 513.5851867 0 283.64355-229.93794 513.58155-513.57493 513.58155-283.64749 0-513.585581-229.938-513.585581-513.58155 0-283.64224 229.938091-513.5851867 513.585581-513.5851867" fill="#bf616a"/></g></svg>