<svg height="16" width="16" xmlns="http://www.w3.org/2000/svg"><g fill-rule="evenodd" transform="matrix(.01265624987 0 0 -.01265624987 .87737080438 14.51838441094)"><path d="m563.58759-119.38766c349.0926 0 632.09311 283.00097 632.09311 632.098 0 349.09852-283.00051 632.09906-632.09311 632.09906-349.10297 0-632.104441-283.00054-632.104441-632.09906 0-349.09703 283.001471-632.098 632.104441-632.098" fill="#232831"/><path d="m556.52193-11.060771c283.64075 0 513.57747 229.941751 513.57747 513.582491 0 283.64206-229.93672 513.57878-513.57747 513.57878-283.646 0-513.583018-229.93672-513.583018-513.57878 0-283.64074 229.937018-513.582491 513.583018-513.582491" fill="#a3be8c"/></g></svg>