<svg height="16" width="16" xmlns="http://www.w3.org/2000/svg"><g fill-rule="evenodd" transform="matrix(.01265624987 0 0 -.01265624987 .92975364307 14.49284980666)"><path d="m558.01426-102.00717c349.09859 0 632.09914 283.00019 632.09914 632.09876 0 349.09267-283.00055 632.09331-632.09914 632.09331-349.09709 0-632.098402-283.00064-632.098402-632.09331 0-349.09857 283.001312-632.09876 632.098402-632.09876" fill="#232831"/><path d="m558.63936 8.2829618c283.64212 0 513.57764 229.9370582 513.57764 513.5831182 0 283.64081-229.93552 513.57752-513.57764 513.57752-283.64081 0-513.582854-229.93671-513.582854-513.57752 0-283.64606 229.942044-513.5831182 513.582854-513.5831182" fill="#ebcb8b"/></g></svg>