<?xml version="1.0" encoding="UTF-8" standalone="no"?>
<svg xmlns="http://www.w3.org/2000/svg" version="1.0" height="16" width="16">
  <path fill="#ef2929" d="M 8 1 A 7 7 0 0 0 1 8 A 7 7 0 0 0 8 15 A 7 7 0 0 0 15 8 A 7 7 0 0 0 8 1 z M 5.0019531 5 L 5.7519531 5 C 5.7597331 4.99991 5.7675496 4.999655 5.7753906 5 C 5.9665287 5.0084 6.1578456 5.0964389 6.2910156 5.234375 L 8.0019531 6.9453125 L 9.734375 5.234375 C 9.9335157 5.0615051 10.069449 5.0052497 10.25 5 L 11 5 L 11 5.75 C 11 5.9648463 10.974177 6.1629919 10.8125 6.3125 L 9.1015625 8.0234375 L 10.789062 9.7109375 C 10.930147 9.8520615 10.999995 10.051031 11 10.25 L 11 11 L 10.25 11 C 10.051102 10.999993 9.852005 10.930164 9.7109375 10.789062 L 8.0019531 9.078125 L 6.2910156 10.789062 C 6.1499481 10.9302 5.9508424 11 5.7519531 11 L 5.0019531 11 L 5.0019531 10.25 C 5.0019509 10.051038 5.071803 9.8520615 5.2128906 9.7109375 L 6.9238281 8.0234375 L 5.2128906 6.3125 C 5.0548962 6.1665318 4.9855271 5.9605564 5.0019531 5.75 L 5.0019531 5 z " />
</svg>
