<?xml version="1.0" encoding="UTF-8" standalone="no"?>
<svg xmlns="http://www.w3.org/2000/svg" version="1.0" height="16" width="16">
  <path fill="#ffffff" d="M 7.9980469,1 C 6.2065908,1.0005827 4.4152185,1.685455 3.0488281,3.0527344 0.31604734,5.7872935 0.31817525,10.218392 3.0527344,12.951172 5.787288,15.683958 10.218386,15.68182 12.951172,12.947266 15.683958,10.212712 15.681819,5.7816143 12.947266,3.0488281 11.579986,1.6824379 9.7895029,0.9994173 7.9980469,1 Z M 6,7 h 4 c 0.554,0 1,0.446 1,1 0,0.554 -0.446,1 -1,1 H 6 C 5.446,9 5,8.554 5,8 5,7.446 5.446,7 6,7 Z" />
</svg>
