<?xml version="1.0" encoding="UTF-8"?>
<svg viewBox="0 0 19 19" xmlns="http://www.w3.org/2000/svg">
	<path
		d="m6.7227 5.793c0.082149-1e-7 0.16361 0.030802 0.22656 0.09375l2.5508 2.5508 2.5527-2.5508c0.06295-0.062948 0.14441-0.09375 0.22656-0.09375 0.08215-1e-7 0.16361 0.030802 0.22656 0.09375l0.60742 0.60742c0.1259 0.1259 0.1259 0.32918 0 0.45508l-2.5508 2.5508 2.5508 2.5508c0.1259 0.1259 0.1259 0.32918 0 0.45508l-0.60547 0.60742c-0.1259 0.1259-0.32918 0.1259-0.45508 0l-2.5527-2.5508-2.5508 2.5508c-0.1259 0.1259-0.32918 0.1259-0.45508 0l-0.60547-0.60742c-0.1259-0.1259-0.1259-0.32918 0-0.45508l2.5488-2.5508-2.5488-2.5508c-0.1259-0.1259-0.1259-0.32918 0-0.45508l0.60742-0.60742c0.062948-0.062948 0.14441-0.09375 0.22656-0.09375z"
		fill="#fff"/>
</svg>
