<svg height="16" width="16" xmlns="http://www.w3.org/2000/svg">
  <path d="m8.0005 15.002c3.8659 0 6.9999-3.134 6.9999-7s-3.134-6.9999-6.9999-6.9999c-3.866 0-7 3.1339-7 6.9999s3.134 7 7 7" fill="#e9524a" fill-rule="evenodd"/>
  <path d="m5.1686 5.0913c-.39175.39171-.39175 1.0224 0 1.4142l1.4142 1.4142-1.4142 1.4142c-.39175.39178-.39175 1.0225 0 1.4142.39171.39182 1.0225.39182 1.4142 0l1.4142-1.4142 1.4142 1.4142c.39171.39182 1.0225.39182 1.4142 0 .39174-.39167.39174-1.0224 0-1.4142l-1.4142-1.4142 1.4142-1.4142c.39174-.39178.39174-1.0225 0-1.4142-.39171-.39182-1.0225-.39182-1.4142 0l-1.4142 1.4142-1.4142-1.4142c-.39171-.39182-1.0225-.39182-1.4142 0z" opacity=".5" stroke-width="3.7795"/>
</svg>
