<?xml version="1.0" encoding="UTF-8" standalone="no"?>
<svg
   height="16"
   width="16"
   version="1.1"
   id="svg2"
   sodipodi:docname="close-hover.svg"
   inkscape:version="1.3 (0e150ed6c4, 2023-07-21)"
   xmlns:inkscape="http://www.inkscape.org/namespaces/inkscape"
   xmlns:sodipodi="http://sodipodi.sourceforge.net/DTD/sodipodi-0.dtd"
   xmlns="http://www.w3.org/2000/svg"
   xmlns:svg="http://www.w3.org/2000/svg">
  <defs
     id="defs2" />
  <sodipodi:namedview
     id="namedview2"
     pagecolor="#ffffff"
     bordercolor="#000000"
     borderopacity="0.25"
     inkscape:showpageshadow="2"
     inkscape:pageopacity="0.0"
     inkscape:pagecheckerboard="0"
     inkscape:deskcolor="#d1d1d1"
     inkscape:zoom="50.1875"
     inkscape:cx="8"
     inkscape:cy="8"
     inkscape:window-width="1920"
     inkscape:window-height="1009"
     inkscape:window-x="0"
     inkscape:window-y="0"
     inkscape:window-maximized="1"
     inkscape:current-layer="svg2" />
  <path
     d="m8.0005 15.002c3.8659 0 6.9999-3.134 6.9999-7s-3.134-6.9999-6.9999-6.9999c-3.866 0-7 3.1339-7 6.9999s3.134 7 7 7"
     fill="#e9524a"
     fill-rule="evenodd"
     id="path1" />
  <path
     d="m5.1686 5.0913c-.39175.39171-.39175 1.0224 0 1.4142l1.4142 1.4142-1.4142 1.4142c-.39175.39178-.39175 1.0225 0 1.4142.39171.39182 1.0225.39182 1.4142 0l1.4142-1.4142 1.4142 1.4142c.39171.39182 1.0225.39182 1.4142 0 .39174-.39167.39174-1.0224 0-1.4142l-1.4142-1.4142 1.4142-1.4142c.39174-.39178.39174-1.0225 0-1.4142-.39171-.39182-1.0225-.39182-1.4142 0l-1.4142 1.4142-1.4142-1.4142c-.39171-.39182-1.0225-.39182-1.4142 0z"
     opacity=".5"
     stroke-width="3.7795"
     id="path2" />
  <path
     style="fill:#ed8796;stroke:#ff5555;stroke-width:0;fill-opacity:1"
     d="M 7.4321295,14.971621 C 7.3882939,14.967273 7.2403487,14.94943 7.1033624,14.931971 4.7925561,14.637453 2.7627762,13.184728 1.7330632,11.088418 1.3584118,10.325696 1.1427952,9.5786758 1.0429258,8.6973848 1.0109044,8.4148144 1.010905,7.5851778 1.0429267,7.3026152 1.2414447,5.5508754 2.0163199,4.0084509 3.2777086,2.8541797 4.8683686,1.3985992 7.0184133,0.75767661 9.1354805,1.1079936 11.889046,1.5636339 14.102824,3.603843 14.781853,6.3116684 c 0.144808,0.5774651 0.200188,1.0477448 0.199991,1.6982942 -2.83e-4,0.9343417 -0.146555,1.7079277 -0.487895,2.5803234 -0.112877,0.288492 -0.393779,0.841472 -0.56681,1.115816 -1.015958,1.610819 -2.657215,2.756979 -4.4925188,3.137319 -0.4881483,0.101162 -0.719536,0.123702 -1.3349938,0.130046 -0.3232877,0.0033 -0.6236613,0.0025 -0.6674969,-0.0018 z M 6.1967621,10.994863 c 0.065754,-0.02148 0.1643836,-0.06695 0.2191781,-0.101043 0.054795,-0.03409 0.4336789,-0.393967 0.8419653,-0.799725 L 8.0002441,9.3563551 8.7523015,10.105124 c 0.456161,0.454166 0.7895759,0.770336 0.8474156,0.803586 0.2450871,0.140889 0.5759159,0.177045 0.8311669,0.09084 0.500692,-0.169104 0.787342,-0.682661 0.666704,-1.1944537 -0.06322,-0.2682048 -0.09735,-0.3105562 -0.908841,-1.1276328 L 9.4367665,7.9202989 10.188585,7.1631382 C 10.999743,6.3462161 11.034517,6.3030791 11.097588,6.0355055 11.192927,5.6310432 11.049738,5.2409791 10.712428,4.9862781 10.416244,4.7626311 10.02478,4.7279904 9.6748848,4.894466 9.5324866,4.9622171 9.482774,5.007469 8.7621533,5.7252989 L 8.0000229,6.4844782 7.2677573,5.754925 C 6.7974157,5.2863257 6.491563,4.9972242 6.4126789,4.9466784 5.9154132,4.628051 5.2315475,4.819684 4.9735988,5.3499377 c -0.08079,0.1660776 -0.1088881,0.3132876 -0.097465,0.5106435 0.011218,0.1938092 0.061543,0.3487584 0.1621171,0.499146 0.038999,0.058314 0.3984006,0.4330969 0.7986711,0.83285 L 6.5646864,7.919401 5.8020579,8.6869733 C 4.9936452,9.5006261 4.9684294,9.5313692 4.9006753,9.7859312 c -0.035931,0.1349977 -0.036622,0.3752428 -0.00146,0.5072918 0.151366,0.568428 0.7366219,0.884902 1.2975452,0.70164 z"
     id="path3" />
</svg>
