<svg height="24" viewBox="0 0 24 24" width="24" xmlns="http://www.w3.org/2000/svg">
  <path d="m12.000006 3.0000013a8.9999978 8.9999978 0 0 0 -9.0000058 8.9999987 8.9999978 8.9999978 0 0 0 9.0000058 8.999999 8.9999978 8.9999978 0 0 0 8.999994-8.999999 8.9999978 8.9999978 0 0 0 -8.999994-8.9999987z" fill="#eb6637"/>
  <path d="m8.795 7.912-.883.883.147.146 3.058 3.059-3.057 3.059-.147.146.883.883.146-.147 3.058-3.058 3.059 3.058.146.147.883-.883-.147-.146-3.058-3.059 3.058-3.059.147-.146-.883-.883-.146.147-3.059 3.058-3.059-3.057z" fill="#fff"/>
</svg>
